M48
INCH,LZ
;FILE_FORMAT=2:4
;TYPE=PLATED
;Layer: PTH_Through
;EasyEDA v6.5.39, 2023-12-18 16:16:31
;0a3b229aafce46c6802f92c5d4cde22f,84f6a191e6f14c5fb88c895b5cbe8e50,10
;Gerber Generator version 0.2
;Holesize 1 = 0.0300 inch
T01C0.0300
;Holesize 2 = 0.0320 inch
T02C0.0320
;Holesize 3 = 0.0360 inch
T03C0.0360
;Holesize 4 = 0.0390 inch
T04C0.0390
;Holesize 5 = 0.0450 inch
T05C0.0450
;Holesize 6 = 0.0510 inch
T06C0.0510
;Holesize 7 = 0.0540 inch
T07C0.0540
;Holesize 8 = 0.0590 inch
T08C0.0590
%
G05
G90
T01
X019499Y009650G85X019501Y009650
X023712Y009650G85X023714Y009650
X024449Y009650G85X024451Y009650
X028662Y009650G85X028664Y009650
X024349Y071500G85X024351Y071500
X028562Y071500G85X028564Y071500
X019236Y071500G85X019238Y071500
X023449Y071500G85X023451Y071500
X024349Y077050G85X024351Y077050
X028562Y077050G85X028564Y077050
X019236Y077050G85X019238Y077050
X023449Y077050G85X023451Y077050
X024399Y082650G85X024401Y082650
X028612Y082650G85X028614Y082650
X019286Y082650G85X019288Y082650
X023499Y082650G85X023501Y082650
X024449Y088250G85X024451Y088250
X028662Y088250G85X028664Y088250
X019336Y088250G85X019338Y088250
X023549Y088250G85X023551Y088250
X023549Y093950G85X023551Y093950
X019336Y093950G85X019338Y093950
X024449Y093950G85X024451Y093950
X028662Y093950G85X028664Y093950
X022899Y015650G85X022901Y015650
X018686Y015650G85X018688Y015650
X028062Y015550G85X028064Y015550
X023849Y015550G85X023851Y015550
X022949Y021200G85X022951Y021200
X018736Y021200G85X018738Y021200
X028062Y021200G85X028064Y021200
X023849Y021200G85X023851Y021200
X028012Y026800G85X028014Y026800
X023799Y026800G85X023801Y026800
X022899Y026800G85X022901Y026800
X018686Y026800G85X018688Y026800
X022899Y032350G85X022901Y032350
X018686Y032350G85X018688Y032350
X028012Y032350G85X028014Y032350
X023799Y032350G85X023801Y032350
X028412Y043550G85X028414Y043550
X024199Y043550G85X024201Y043550
X023462Y043550G85X023464Y043550
X019249Y043550G85X019251Y043550
X028412Y049200G85X028414Y049200
X024199Y049200G85X024201Y049200
X023462Y049200G85X023464Y049200
X019249Y049200G85X019251Y049200
X023662Y054750G85X023664Y054750
X019449Y054750G85X019451Y054750
X028612Y054750G85X028614Y054750
X024399Y054750G85X024401Y054750
X023362Y060350G85X023364Y060350
X019149Y060350G85X019151Y060350
X028312Y060350G85X028314Y060350
X024099Y060350G85X024101Y060350
X028312Y065900G85X028314Y065900
X024099Y065900G85X024101Y065900
X023362Y065900G85X023364Y065900
X019149Y065900G85X019151Y065900
X027912Y038000G85X027914Y038000
X023699Y038000G85X023701Y038000
X022799Y038000G85X022801Y038000
X018586Y038000G85X018588Y038000
T02
X021750Y092750G85X021750Y092750
X028246Y092750G85X028246Y092750
X021650Y008400G85X021650Y008400
X028146Y008400G85X028146Y008400
X021900Y006850G85X021900Y006850
X028396Y006850G85X028396Y006850
X028150Y005300G85X028150Y005300
X021654Y005300G85X021654Y005300
X029550Y005050G85X029550Y005050
X029550Y009263G85X029550Y009263
X029500Y066937G85X029500Y066937
X029500Y071150G85X029500Y071150
X028200Y067150G85X028200Y067150
X021704Y067150G85X021704Y067150
X021704Y068650G85X021704Y068650
X028200Y068650G85X028200Y068650
X021650Y070300G85X021650Y070300
X028146Y070300G85X028146Y070300
X029500Y072487G85X029500Y072487
X029500Y076700G85X029500Y076700
X028200Y072700G85X028200Y072700
X021704Y072700G85X021704Y072700
X021704Y074200G85X021704Y074200
X028200Y074200G85X028200Y074200
X021650Y075850G85X021650Y075850
X028146Y075850G85X028146Y075850
X029550Y078087G85X029550Y078087
X029550Y082300G85X029550Y082300
X028250Y078300G85X028250Y078300
X021754Y078300G85X021754Y078300
X021754Y079800G85X021754Y079800
X028250Y079800G85X028250Y079800
X021700Y081450G85X021700Y081450
X028196Y081450G85X028196Y081450
X029600Y083687G85X029600Y083687
X029600Y087900G85X029600Y087900
X028300Y083900G85X028300Y083900
X021804Y083900G85X021804Y083900
X021804Y085400G85X021804Y085400
X028300Y085400G85X028300Y085400
X021750Y087050G85X021750Y087050
X028246Y087050G85X028246Y087050
X021804Y091100G85X021804Y091100
X028300Y091100G85X028300Y091100
X028300Y089600G85X028300Y089600
X021804Y089600G85X021804Y089600
X029600Y089387G85X029600Y089387
X029600Y093600G85X029600Y093600
X027646Y014350G85X027646Y014350
X021150Y014350G85X021150Y014350
X027700Y012700G85X027700Y012700
X021204Y012700G85X021204Y012700
X021204Y011200G85X021204Y011200
X027700Y011200G85X027700Y011200
X029000Y015200G85X029000Y015200
X029000Y010987G85X029000Y010987
X027646Y020000G85X027646Y020000
X021150Y020000G85X021150Y020000
X027700Y018350G85X027700Y018350
X021204Y018350G85X021204Y018350
X021204Y016850G85X021204Y016850
X027700Y016850G85X027700Y016850
X029000Y020850G85X029000Y020850
X029000Y016637G85X029000Y016637
X028950Y026450G85X028950Y026450
X028950Y022237G85X028950Y022237
X021154Y022450G85X021154Y022450
X027650Y022450G85X027650Y022450
X027650Y023950G85X027650Y023950
X021154Y023950G85X021154Y023950
X027596Y025600G85X027596Y025600
X021100Y025600G85X021100Y025600
X027596Y031150G85X027596Y031150
X021100Y031150G85X021100Y031150
X027650Y029500G85X027650Y029500
X021154Y029500G85X021154Y029500
X021154Y028000G85X021154Y028000
X027650Y028000G85X027650Y028000
X028950Y032000G85X028950Y032000
X028950Y027787G85X028950Y027787
X029300Y038950G85X029300Y038950
X029300Y043163G85X029300Y043163
X027900Y039200G85X027900Y039200
X021404Y039200G85X021404Y039200
X028146Y040750G85X028146Y040750
X021650Y040750G85X021650Y040750
X027896Y042300G85X027896Y042300
X021400Y042300G85X021400Y042300
X029300Y048813G85X029300Y048813
X029300Y044600G85X029300Y044600
X027900Y044850G85X027900Y044850
X021404Y044850G85X021404Y044850
X028146Y046400G85X028146Y046400
X021650Y046400G85X021650Y046400
X027896Y047950G85X027896Y047950
X021400Y047950G85X021400Y047950
X028096Y053500G85X028096Y053500
X021600Y053500G85X021600Y053500
X028346Y051950G85X028346Y051950
X021850Y051950G85X021850Y051950
X021604Y050400G85X021604Y050400
X028100Y050400G85X028100Y050400
X029500Y054363G85X029500Y054363
X029500Y050150G85X029500Y050150
X027796Y059100G85X027796Y059100
X021300Y059100G85X021300Y059100
X028046Y057550G85X028046Y057550
X021550Y057550G85X021550Y057550
X021304Y056000G85X021304Y056000
X027800Y056000G85X027800Y056000
X029200Y059963G85X029200Y059963
X029200Y055750G85X029200Y055750
X029200Y065513G85X029200Y065513
X029200Y061300G85X029200Y061300
X028850Y037650G85X028850Y037650
X028850Y033437G85X028850Y033437
X021304Y061550G85X021304Y061550
X027800Y061550G85X027800Y061550
X021054Y033650G85X021054Y033650
X027550Y033650G85X027550Y033650
X028046Y063100G85X028046Y063100
X021550Y063100G85X021550Y063100
X027550Y035150G85X027550Y035150
X021054Y035150G85X021054Y035150
X027796Y064650G85X027796Y064650
X021300Y064650G85X021300Y064650
X027496Y036800G85X027496Y036800
X021000Y036800G85X021000Y036800
T03
X031801Y007400G85X031799Y007400
X031801Y006400G85X031799Y006400
X017900Y007851G85X017900Y007849
X016900Y007851G85X016900Y007849
X031651Y068400G85X031649Y068400
X031651Y069400G85X031649Y069400
X017700Y069351G85X017700Y069349
X016700Y069351G85X016700Y069349
X031651Y073950G85X031649Y073950
X031651Y074950G85X031649Y074950
X017700Y074901G85X017700Y074899
X016700Y074901G85X016700Y074899
X031701Y079550G85X031699Y079550
X031701Y080550G85X031699Y080550
X017750Y080501G85X017750Y080499
X016750Y080501G85X016750Y080499
X031751Y085150G85X031749Y085150
X031751Y086150G85X031749Y086150
X016800Y086101G85X016800Y086099
X017800Y086101G85X017800Y086099
X017800Y091801G85X017800Y091799
X016800Y091801G85X016800Y091799
X031751Y090850G85X031749Y090850
X031751Y091850G85X031749Y091850
X016200Y013401G85X016200Y013399
X017200Y013401G85X017200Y013399
X031151Y013450G85X031149Y013450
X031151Y012450G85X031149Y012450
X016200Y019051G85X016200Y019049
X017200Y019051G85X017200Y019049
X031151Y019100G85X031149Y019100
X031151Y018100G85X031149Y018100
X031101Y024700G85X031099Y024700
X031101Y023700G85X031099Y023700
X016150Y024651G85X016150Y024649
X017150Y024651G85X017150Y024649
X016150Y030201G85X016150Y030199
X017150Y030201G85X017150Y030199
X031101Y030250G85X031099Y030250
X031101Y029250G85X031099Y029250
X016650Y041751G85X016650Y041749
X017650Y041751G85X017650Y041749
X031551Y040300G85X031549Y040300
X031551Y041300G85X031549Y041300
X016650Y047401G85X016650Y047399
X017650Y047401G85X017650Y047399
X031551Y045950G85X031549Y045950
X031551Y046950G85X031549Y046950
X031751Y051500G85X031749Y051500
X031751Y052500G85X031749Y052500
X016850Y052951G85X016850Y052949
X017850Y052951G85X017850Y052949
X031451Y057100G85X031449Y057100
X031451Y058100G85X031449Y058100
X016550Y058551G85X016550Y058549
X017550Y058551G85X017550Y058549
X016550Y064101G85X016550Y064099
X017550Y064101G85X017550Y064099
X031451Y062650G85X031449Y062650
X031451Y063650G85X031449Y063650
X031001Y035900G85X030999Y035900
X031001Y034900G85X030999Y034900
X016050Y035851G85X016050Y035849
X017050Y035851G85X017050Y035849
T04
X014100Y006750G85X014100Y006750
X011100Y006750G85X011100Y006750
X009100Y006750G85X009100Y006750
X007100Y006750G85X007100Y006750
X007100Y009750G85X007100Y009750
X009100Y009750G85X009100Y009750
X011100Y009750G85X011100Y009750
X014100Y009750G85X014100Y009750
X014550Y089300G85X014550Y089300
X011550Y089300G85X011550Y089300
X009550Y089300G85X009550Y089300
X007550Y089300G85X007550Y089300
X007550Y092300G85X007550Y092300
X009550Y092300G85X009550Y092300
X011550Y092300G85X011550Y092300
X014550Y092300G85X014550Y092300
X014600Y087200G85X014600Y087200
X014600Y084200G85X014600Y084200
X011600Y084200G85X011600Y084200
X009600Y084200G85X009600Y084200
X007600Y084200G85X007600Y084200
X007600Y087200G85X007600Y087200
X009600Y087200G85X009600Y087200
X011600Y087200G85X011600Y087200
X014682Y074043G85X014682Y074043
X011682Y074043G85X011682Y074043
X009682Y074043G85X009682Y074043
X007682Y074043G85X007682Y074043
X007682Y077043G85X007682Y077043
X009682Y077043G85X009682Y077043
X011682Y077043G85X011682Y077043
X014682Y077043G85X014682Y077043
X014650Y079150G85X014650Y079150
X011650Y079150G85X011650Y079150
X009650Y079150G85X009650Y079150
X007650Y079150G85X007650Y079150
X007650Y082150G85X007650Y082150
X009650Y082150G85X009650Y082150
X011650Y082150G85X011650Y082150
X014650Y082150G85X014650Y082150
X014700Y068950G85X014700Y068950
X011700Y068950G85X011700Y068950
X009700Y068950G85X009700Y068950
X007700Y068950G85X007700Y068950
X007700Y071950G85X007700Y071950
X009700Y071950G85X009700Y071950
X011700Y071950G85X011700Y071950
X014700Y071950G85X014700Y071950
X014468Y044807G85X014468Y044807
X011468Y044807G85X011468Y044807
X009468Y044807G85X009468Y044807
X007468Y044807G85X007468Y044807
X007468Y041807G85X007468Y041807
X009468Y041807G85X009468Y041807
X011468Y041807G85X011468Y041807
X014468Y041807G85X014468Y041807
X014100Y016500G85X014100Y016500
X011100Y016500G85X011100Y016500
X009100Y016500G85X009100Y016500
X007100Y016500G85X007100Y016500
X007100Y013500G85X007100Y013500
X009100Y013500G85X009100Y013500
X011100Y013500G85X011100Y013500
X014100Y013500G85X014100Y013500
X014468Y054757G85X014468Y054757
X011468Y054757G85X011468Y054757
X009468Y054757G85X009468Y054757
X007468Y054757G85X007468Y054757
X007468Y051757G85X007468Y051757
X009468Y051757G85X009468Y051757
X011468Y051757G85X011468Y051757
X014468Y051757G85X014468Y051757
X014100Y026600G85X014100Y026600
X011100Y026600G85X011100Y026600
X009100Y026600G85X009100Y026600
X007100Y026600G85X007100Y026600
X007100Y023600G85X007100Y023600
X009100Y023600G85X009100Y023600
X011100Y023600G85X011100Y023600
X014100Y023600G85X014100Y023600
X014082Y021543G85X014082Y021543
X011082Y021543G85X011082Y021543
X009082Y021543G85X009082Y021543
X007082Y021543G85X007082Y021543
X007082Y018543G85X007082Y018543
X009082Y018543G85X009082Y018543
X011082Y018543G85X011082Y018543
X014082Y018543G85X014082Y018543
X014468Y046807G85X014468Y046807
X011468Y046807G85X011468Y046807
X009468Y046807G85X009468Y046807
X007468Y046807G85X007468Y046807
X007468Y049807G85X007468Y049807
X009468Y049807G85X009468Y049807
X011468Y049807G85X011468Y049807
X014468Y049807G85X014468Y049807
X014468Y056807G85X014468Y056807
X011468Y056807G85X011468Y056807
X009468Y056807G85X009468Y056807
X007468Y056807G85X007468Y056807
X007468Y059807G85X007468Y059807
X009468Y059807G85X009468Y059807
X011468Y059807G85X011468Y059807
X014468Y059807G85X014468Y059807
X011082Y031743G85X011082Y031743
X009082Y031743G85X009082Y031743
X007082Y031743G85X007082Y031743
X007082Y028743G85X007082Y028743
X009082Y028743G85X009082Y028743
X011082Y028743G85X011082Y028743
X014082Y028743G85X014082Y028743
X014082Y031743G85X014082Y031743
X014468Y064757G85X014468Y064757
X011468Y064757G85X011468Y064757
X009468Y064757G85X009468Y064757
X007468Y064757G85X007468Y064757
X007468Y061757G85X007468Y061757
X009468Y061757G85X009468Y061757
X011468Y061757G85X011468Y061757
X014468Y061757G85X014468Y061757
X014100Y036850G85X014100Y036850
X011100Y036850G85X011100Y036850
X009100Y036850G85X009100Y036850
X007100Y036850G85X007100Y036850
X007100Y033850G85X007100Y033850
X009100Y033850G85X009100Y033850
X011100Y033850G85X011100Y033850
X014100Y033850G85X014100Y033850
T05
X017769Y010407G85X017767Y010407
X016769Y010407G85X016767Y010407
X016519Y044307G85X016517Y044307
X017519Y044307G85X017517Y044307
X016619Y049657G85X016617Y049657
X017619Y049657G85X017617Y049657
X016669Y055157G85X016667Y055157
X017669Y055157G85X017667Y055157
X017569Y060607G85X017567Y060607
X016569Y060607G85X016567Y060607
X017719Y066207G85X017717Y066207
X016719Y066207G85X016717Y066207
X017069Y015707G85X017067Y015707
X016069Y015707G85X016067Y015707
X017019Y021457G85X017017Y021457
X016019Y021457G85X016017Y021457
X017169Y026807G85X017167Y026807
X016169Y026807G85X016167Y026807
X016819Y032457G85X016817Y032457
X015819Y032457G85X015817Y032457
X016569Y082707G85X016567Y082707
X017569Y082707G85X017567Y082707
X016869Y038107G85X016867Y038107
X015869Y038107G85X015867Y038107
X016769Y071607G85X016767Y071607
X017769Y071607G85X017767Y071607
X016869Y077207G85X016867Y077207
X017869Y077207G85X017867Y077207
X017651Y088250G85X017649Y088250
X016651Y088250G85X016649Y088250
X016399Y094800G85X016401Y094800
X016400Y093801G85X016400Y093799
T06
X035100Y006050G85X035100Y006050
X035100Y008019G85X035100Y008019
X035400Y040250G85X035400Y040250
X035400Y042218G85X035400Y042218
X035400Y048350G85X035400Y048350
X035400Y050318G85X035400Y050318
X035150Y059500G85X035150Y059500
X035150Y061468G85X035150Y061468
X034850Y011950G85X034850Y011950
X034850Y013919G85X034850Y013919
X034850Y020400G85X034850Y020400
X034850Y022369G85X034850Y022369
X035350Y070250G85X035350Y070250
X035350Y068282G85X035350Y068282
X035200Y078800G85X035200Y078800
X035200Y076832G85X035200Y076832
X035400Y084400G85X035400Y084400
X035400Y082432G85X035400Y082432
X035900Y091300G85X035900Y091300
X035900Y089332G85X035900Y089332
X034750Y033869G85X034750Y033869
X034750Y031900G85X034750Y031900
T07
X020550Y005850G85X020550Y005850
X020550Y006850G85X020550Y006850
X020550Y007850G85X020550Y007850
X020300Y067700G85X020300Y067700
X020300Y068700G85X020300Y068700
X020300Y069700G85X020300Y069700
X020300Y073250G85X020300Y073250
X020300Y074250G85X020300Y074250
X020300Y075250G85X020300Y075250
X020350Y078850G85X020350Y078850
X020350Y079850G85X020350Y079850
X020350Y080850G85X020350Y080850
X020400Y084450G85X020400Y084450
X020400Y085450G85X020400Y085450
X020400Y086450G85X020400Y086450
X020400Y090150G85X020400Y090150
X020400Y091150G85X020400Y091150
X020400Y092150G85X020400Y092150
X019900Y013850G85X019900Y013850
X019900Y012850G85X019900Y012850
X019900Y011850G85X019900Y011850
X019800Y019400G85X019800Y019400
X019800Y018400G85X019800Y018400
X019800Y017400G85X019800Y017400
X019750Y025000G85X019750Y025000
X019750Y024000G85X019750Y024000
X019750Y023000G85X019750Y023000
X019750Y030550G85X019750Y030550
X019750Y029550G85X019750Y029550
X019750Y028550G85X019750Y028550
X020300Y039750G85X020300Y039750
X020300Y040750G85X020300Y040750
X020300Y041750G85X020300Y041750
X020300Y047400G85X020300Y047400
X020300Y046400G85X020300Y046400
X020300Y045400G85X020300Y045400
X020500Y052950G85X020500Y052950
X020500Y051950G85X020500Y051950
X020500Y050950G85X020500Y050950
X020200Y058550G85X020200Y058550
X020200Y057550G85X020200Y057550
X020200Y056550G85X020200Y056550
X020200Y064100G85X020200Y064100
X020200Y063100G85X020200Y063100
X020200Y062100G85X020200Y062100
X019650Y036200G85X019650Y036200
X019650Y035200G85X019650Y035200
X019650Y034200G85X019650Y034200
T08
X004350Y093700G85X004350Y093700
X005350Y092700G85X005350Y092700
X005350Y094700G85X005350Y094700
X003350Y094700G85X003350Y094700
X003350Y092700G85X003350Y092700
X010500Y003800G85X010500Y003800
X012500Y003800G85X012500Y003800
X012500Y001800G85X012500Y001800
X010500Y001800G85X010500Y001800
X011500Y002800G85X011500Y002800
X002025Y009348G85X002025Y009348
X004025Y009348G85X004025Y009348
X004025Y007348G85X004025Y007348
X002025Y007348G85X002025Y007348
X003025Y008348G85X003025Y008348
X025050Y001700
X011600Y094450
M30
