G04 Layer: TopSolderMaskLayer*
G04 EasyEDA v6.5.39, 2023-12-18 16:16:31*
G04 0a3b229aafce46c6802f92c5d4cde22f,84f6a191e6f14c5fb88c895b5cbe8e50,10*
G04 Gerber Generator version 0.2*
G04 Scale: 100 percent, Rotated: No, Reflected: No *
G04 Dimensions in inches *
G04 leading zeros omitted , absolute positions ,3 integer and 6 decimal *
%FSLAX36Y36*%
%MOIN*%

%AMMACRO1*4,1,20,-0.0494,-1.2225,-0.0688,-1.2186,-0.0855,-1.2075,-0.0966,-1.1909,-0.1004,-1.1715,-0.1004,1.1715,-0.0966,1.1909,-0.0855,1.2075,-0.0688,1.2186,-0.0494,1.2225,0.0494,1.2225,0.0688,1.2186,0.0854,1.2075,0.0966,1.1909,0.1004,1.1715,0.1004,-1.1715,0.0966,-1.1909,0.0854,-1.2075,0.0688,-1.2186,0.0494,-1.2225,-0.0494,-1.2225,0*%
%AMMACRO2*4,1,20,-0.0494,-0.1004,-0.0688,-0.0966,-0.0855,-0.0854,-0.0966,-0.0688,-0.1004,-0.0494,-0.1004,0.0494,-0.0966,0.0688,-0.0855,0.0855,-0.0688,0.0966,-0.0494,0.1004,0.0494,0.1004,0.0688,0.0966,0.0854,0.0855,0.0966,0.0688,0.1004,0.0494,0.1004,-0.0494,0.0966,-0.0688,0.0854,-0.0854,0.0688,-0.0966,0.0494,-0.1004,-0.0494,-0.1004,0*%
%AMMACRO3*1,1,$1,$2,$3*1,1,$1,$4,$5*1,1,$1,0-$2,0-$3*1,1,$1,0-$4,0-$5*20,1,$1,$2,$3,$4,$5,0*20,1,$1,$4,$5,0-$2,0-$3,0*20,1,$1,0-$2,0-$3,0-$4,0-$5,0*20,1,$1,0-$4,0-$5,$2,$3,0*4,1,4,$2,$3,$4,$5,0-$2,0-$3,0-$4,0-$5,$2,$3,0*%
%ADD10MACRO1*%
%ADD11MACRO2*%
%ADD12C,0.0512*%
%ADD13C,0.0926*%
%ADD14C,0.0631*%
%ADD15MACRO3,0.004X0.0295X-0.0295X-0.0295X-0.0295*%
%ADD16MACRO3,0.004X-0.0226X0.0226X0.0226X0.0226*%
%ADD17C,0.0493*%
%ADD18C,0.0597*%
%ADD19C,0.0136*%
%ADD20MACRO3,0.004X0.0279X-0.0279X-0.0279X-0.0279*%
%ADD21MACRO3,0.004X0.0279X0.0279X0.0279X-0.0279*%
%ADD22R,0.0855X0.0855*%
%ADD23C,0.0855*%
%ADD24MACRO3,0.004X0.034X-0.034X-0.034X-0.034*%
%ADD25C,0.0719*%
%ADD26C,0.1418*%
%ADD27MACRO3,0.004X-0.0453X0.0689X0.0453X0.0689*%
%ADD28MACRO3,0.004X0.0689X0.0344X0.0689X-0.0344*%
%ADD29MACRO3,0.004X0.034X0.034X0.034X-0.034*%
%ADD30MACRO3,0.004X-0.0344X0.0344X0.0344X0.0344*%
%ADD31C,0.0749*%
%ADD32MACRO3,0.004X0.0354X0.0354X0.0354X-0.0354*%
%ADD33R,0.1024X0.0855*%
%ADD34O,0.102425X0.085496*%
%ADD35C,0.0640*%

%LPD*%
D10*
G01*
X135005Y5320000D03*
D11*
G01*
X1165005Y9439995D03*
G01*
X2505005Y169994D03*
G01*
X1510005Y264995D03*
G01*
X305005Y514995D03*
G01*
X810005Y9439995D03*
D12*
G01*
X2175000Y9275000D03*
G01*
X2824610Y9275000D03*
D13*
G01*
X435000Y9370000D03*
G01*
X535000Y9270000D03*
G01*
X535000Y9470000D03*
G01*
X335000Y9470000D03*
G01*
X335000Y9270000D03*
G01*
X1050000Y380000D03*
G01*
X1250000Y380000D03*
G01*
X1250000Y180000D03*
G01*
X1050000Y180000D03*
G01*
X1150000Y280000D03*
G01*
X202500Y934840D03*
G01*
X402500Y934840D03*
G01*
X402500Y734840D03*
G01*
X202500Y734840D03*
G01*
X302500Y834840D03*
D14*
G01*
X1410000Y675000D03*
G01*
X1110000Y675000D03*
G01*
X910000Y675000D03*
G01*
X710000Y675000D03*
G01*
X710000Y975000D03*
G01*
X910000Y975000D03*
G01*
X1110000Y975000D03*
D15*
G01*
X1410000Y975000D03*
D12*
G01*
X2165000Y840000D03*
G01*
X2814610Y840000D03*
G01*
X2190000Y685000D03*
G01*
X2839610Y685000D03*
D16*
G01*
X1950000Y965000D03*
D17*
G01*
X2371259Y965000D03*
D16*
G01*
X2445000Y965000D03*
D17*
G01*
X2866259Y965000D03*
D18*
G01*
X3180000Y740000D03*
D20*
G01*
X3180000Y640000D03*
D21*
G01*
X1790000Y785000D03*
D18*
G01*
X1690000Y785000D03*
D12*
G01*
X2815000Y530000D03*
G01*
X2165390Y530000D03*
D22*
G01*
X2055000Y585000D03*
D23*
G01*
X2055000Y685000D03*
G01*
X2055000Y785000D03*
D12*
G01*
X2955000Y505000D03*
G01*
X2955000Y926260D03*
D24*
G01*
X1776830Y1040670D03*
D25*
G01*
X1676830Y1040670D03*
D26*
G01*
X3510000Y605000D03*
G01*
X3510000Y801850D03*
D27*
G01*
X213070Y4185000D03*
G01*
X346930Y4185000D03*
G01*
X213070Y4725000D03*
G01*
X346930Y4725000D03*
G01*
X351930Y5175000D03*
G01*
X218070Y5175000D03*
G01*
X346930Y5720000D03*
G01*
X213070Y5720000D03*
G01*
X346930Y6170000D03*
G01*
X213070Y6170000D03*
G01*
X346930Y6465000D03*
G01*
X213070Y6465000D03*
G01*
X296930Y1635000D03*
G01*
X163070Y1635000D03*
G01*
X306930Y2085000D03*
G01*
X173070Y2085000D03*
G01*
X301930Y2630000D03*
G01*
X168070Y2630000D03*
G01*
X301930Y3115000D03*
G01*
X168070Y3115000D03*
G01*
X301930Y3405000D03*
G01*
X168070Y3405000D03*
G01*
X301930Y3665000D03*
G01*
X168070Y3665000D03*
G01*
X298070Y6920000D03*
G01*
X431930Y6920000D03*
G01*
X308070Y7360000D03*
G01*
X441930Y7360000D03*
G01*
X303070Y7910000D03*
G01*
X436930Y7910000D03*
G01*
X298070Y8390000D03*
G01*
X431930Y8390000D03*
G01*
X298070Y8950000D03*
G01*
X431930Y8950000D03*
D26*
G01*
X3540000Y4025000D03*
G01*
X3540000Y4221849D03*
G01*
X3540000Y4835000D03*
G01*
X3540000Y5031849D03*
G01*
X3515000Y5950000D03*
G01*
X3515000Y6146849D03*
G01*
X3485000Y1195000D03*
G01*
X3485000Y1391850D03*
G01*
X3485000Y2040000D03*
G01*
X3485000Y2236850D03*
G01*
X3535000Y7025000D03*
G01*
X3535000Y6828150D03*
G01*
X3520000Y7880000D03*
G01*
X3520000Y7683150D03*
G01*
X3540000Y8440000D03*
G01*
X3540000Y8243150D03*
D25*
G01*
X1651830Y4430670D03*
D24*
G01*
X1751830Y4430670D03*
D25*
G01*
X1661830Y4965670D03*
D24*
G01*
X1761830Y4965670D03*
D25*
G01*
X1666830Y5515670D03*
D24*
G01*
X1766830Y5515670D03*
G01*
X1756830Y6060670D03*
D25*
G01*
X1656830Y6060670D03*
D24*
G01*
X1771830Y6620670D03*
D25*
G01*
X1671830Y6620670D03*
D24*
G01*
X1706830Y1570670D03*
D25*
G01*
X1606830Y1570670D03*
D24*
G01*
X1701830Y2145670D03*
D25*
G01*
X1601830Y2145670D03*
D24*
G01*
X1716830Y2680670D03*
D25*
G01*
X1616830Y2680670D03*
D24*
G01*
X1681830Y3245670D03*
D25*
G01*
X1581830Y3245670D03*
G01*
X1656830Y8270670D03*
D24*
G01*
X1756830Y8270670D03*
G01*
X1686830Y3810670D03*
D25*
G01*
X1586830Y3810670D03*
G01*
X1676830Y7160670D03*
D24*
G01*
X1776830Y7160670D03*
D25*
G01*
X1686830Y7720670D03*
D24*
G01*
X1786830Y7720670D03*
G01*
X1765000Y8825000D03*
D25*
G01*
X1665000Y8825000D03*
D28*
G01*
X1640000Y9480000D03*
D29*
G01*
X1640000Y9380000D03*
D12*
G01*
X2950000Y6693740D03*
G01*
X2950000Y7115000D03*
D22*
G01*
X2030000Y6770000D03*
D23*
G01*
X2030000Y6870000D03*
G01*
X2030000Y6970000D03*
D12*
G01*
X2820000Y6715000D03*
G01*
X2170390Y6715000D03*
D20*
G01*
X3165000Y6840000D03*
D18*
G01*
X3165000Y6940000D03*
D21*
G01*
X1770000Y6935000D03*
D18*
G01*
X1670000Y6935000D03*
D16*
G01*
X2435000Y7150000D03*
D17*
G01*
X2856259Y7150000D03*
D16*
G01*
X1923740Y7150000D03*
D17*
G01*
X2345000Y7150000D03*
D12*
G01*
X2170390Y6865000D03*
G01*
X2820000Y6865000D03*
G01*
X2165000Y7030000D03*
G01*
X2814610Y7030000D03*
G01*
X2950000Y7248740D03*
G01*
X2950000Y7670000D03*
D22*
G01*
X2030000Y7325000D03*
D23*
G01*
X2030000Y7425000D03*
G01*
X2030000Y7525000D03*
D12*
G01*
X2820000Y7270000D03*
G01*
X2170390Y7270000D03*
D20*
G01*
X3165000Y7395000D03*
D18*
G01*
X3165000Y7495000D03*
D21*
G01*
X1770000Y7490000D03*
D18*
G01*
X1670000Y7490000D03*
D16*
G01*
X2435000Y7705000D03*
D17*
G01*
X2856259Y7705000D03*
D16*
G01*
X1923740Y7705000D03*
D17*
G01*
X2345000Y7705000D03*
D12*
G01*
X2170390Y7420000D03*
G01*
X2820000Y7420000D03*
G01*
X2165000Y7585000D03*
G01*
X2814610Y7585000D03*
G01*
X2955000Y7808740D03*
G01*
X2955000Y8230000D03*
D22*
G01*
X2035000Y7885000D03*
D23*
G01*
X2035000Y7985000D03*
G01*
X2035000Y8085000D03*
D12*
G01*
X2825000Y7830000D03*
G01*
X2175390Y7830000D03*
D20*
G01*
X3170000Y7955000D03*
D18*
G01*
X3170000Y8055000D03*
D21*
G01*
X1775000Y8050000D03*
D18*
G01*
X1675000Y8050000D03*
D16*
G01*
X2440000Y8265000D03*
D17*
G01*
X2861259Y8265000D03*
D16*
G01*
X1928740Y8265000D03*
D17*
G01*
X2350000Y8265000D03*
D12*
G01*
X2175390Y7980000D03*
G01*
X2825000Y7980000D03*
G01*
X2170000Y8145000D03*
G01*
X2819610Y8145000D03*
G01*
X2960000Y8368740D03*
G01*
X2960000Y8790000D03*
D22*
G01*
X2040000Y8445000D03*
D23*
G01*
X2040000Y8545000D03*
G01*
X2040000Y8645000D03*
D12*
G01*
X2830000Y8390000D03*
G01*
X2180390Y8390000D03*
D20*
G01*
X3175000Y8515000D03*
D18*
G01*
X3175000Y8615000D03*
G01*
X1680000Y8610000D03*
D21*
G01*
X1780000Y8610000D03*
D16*
G01*
X2445000Y8825000D03*
D17*
G01*
X2866259Y8825000D03*
D16*
G01*
X1933740Y8825000D03*
D17*
G01*
X2355000Y8825000D03*
D12*
G01*
X2180390Y8540000D03*
G01*
X2830000Y8540000D03*
G01*
X2175000Y8705000D03*
G01*
X2824610Y8705000D03*
G01*
X2180390Y9110000D03*
G01*
X2830000Y9110000D03*
D14*
G01*
X2355000Y9395000D03*
D30*
G01*
X1933740Y9395000D03*
D14*
G01*
X2445000Y9395000D03*
D31*
G01*
X2866259Y9395000D03*
D32*
G01*
X1780000Y9180000D03*
D31*
G01*
X1680000Y9180000D03*
D20*
G01*
X3175000Y9085000D03*
D18*
G01*
X3175000Y9185000D03*
D12*
G01*
X2830000Y8960000D03*
G01*
X2180390Y8960000D03*
D33*
G01*
X2040000Y9015000D03*
D34*
G01*
X2040000Y9115000D03*
G01*
X2040000Y9215000D03*
D12*
G01*
X2960000Y8938740D03*
D31*
G01*
X2960000Y9360000D03*
D12*
G01*
X2764610Y1435000D03*
G01*
X2115000Y1435000D03*
G01*
X2770000Y1270000D03*
G01*
X2120390Y1270000D03*
D17*
G01*
X2290000Y1565000D03*
D16*
G01*
X1868740Y1565000D03*
D17*
G01*
X2806259Y1555000D03*
D16*
G01*
X2385000Y1555000D03*
D18*
G01*
X1620000Y1340000D03*
D21*
G01*
X1720000Y1340000D03*
D18*
G01*
X3115000Y1345000D03*
D20*
G01*
X3115000Y1245000D03*
D12*
G01*
X2120390Y1120000D03*
G01*
X2770000Y1120000D03*
D23*
G01*
X1990000Y1385000D03*
G01*
X1990000Y1285000D03*
D22*
G01*
X1990000Y1185000D03*
D12*
G01*
X2900000Y1520000D03*
G01*
X2900000Y1098740D03*
G01*
X2764610Y2000000D03*
G01*
X2115000Y2000000D03*
G01*
X2770000Y1835000D03*
G01*
X2120390Y1835000D03*
D17*
G01*
X2295000Y2120000D03*
D16*
G01*
X1873740Y2120000D03*
D17*
G01*
X2806259Y2120000D03*
D16*
G01*
X2385000Y2120000D03*
D18*
G01*
X1620000Y1905000D03*
D21*
G01*
X1720000Y1905000D03*
D18*
G01*
X3115000Y1910000D03*
D20*
G01*
X3115000Y1810000D03*
D12*
G01*
X2120390Y1685000D03*
G01*
X2770000Y1685000D03*
D23*
G01*
X1980000Y1940000D03*
G01*
X1980000Y1840000D03*
D22*
G01*
X1980000Y1740000D03*
D12*
G01*
X2900000Y2085000D03*
G01*
X2900000Y1663740D03*
G01*
X2895000Y2645000D03*
G01*
X2895000Y2223740D03*
D23*
G01*
X1975000Y2500000D03*
G01*
X1975000Y2400000D03*
D22*
G01*
X1975000Y2300000D03*
D12*
G01*
X2115390Y2245000D03*
G01*
X2765000Y2245000D03*
D18*
G01*
X3110000Y2470000D03*
D20*
G01*
X3110000Y2370000D03*
D18*
G01*
X1615000Y2465000D03*
D21*
G01*
X1715000Y2465000D03*
D17*
G01*
X2801259Y2680000D03*
D16*
G01*
X2380000Y2680000D03*
D17*
G01*
X2290000Y2680000D03*
D16*
G01*
X1868740Y2680000D03*
D12*
G01*
X2765000Y2395000D03*
G01*
X2115390Y2395000D03*
G01*
X2759610Y2560000D03*
G01*
X2110000Y2560000D03*
G01*
X2759610Y3115000D03*
G01*
X2110000Y3115000D03*
G01*
X2765000Y2950000D03*
G01*
X2115390Y2950000D03*
D17*
G01*
X2290000Y3235000D03*
D16*
G01*
X1868740Y3235000D03*
D17*
G01*
X2801259Y3235000D03*
D16*
G01*
X2380000Y3235000D03*
D18*
G01*
X1615000Y3020000D03*
D21*
G01*
X1715000Y3020000D03*
D18*
G01*
X3110000Y3025000D03*
D20*
G01*
X3110000Y2925000D03*
D12*
G01*
X2115390Y2800000D03*
G01*
X2765000Y2800000D03*
D23*
G01*
X1975000Y3055000D03*
G01*
X1975000Y2955000D03*
D22*
G01*
X1975000Y2855000D03*
D12*
G01*
X2895000Y3200000D03*
G01*
X2895000Y2778740D03*
G01*
X2930000Y3895000D03*
G01*
X2930000Y4316260D03*
D22*
G01*
X2030000Y3975000D03*
D23*
G01*
X2030000Y4075000D03*
G01*
X2030000Y4175000D03*
D12*
G01*
X2790000Y3920000D03*
G01*
X2140390Y3920000D03*
D18*
G01*
X1665000Y4175000D03*
D21*
G01*
X1765000Y4175000D03*
D20*
G01*
X3155000Y4030000D03*
D18*
G01*
X3155000Y4130000D03*
D17*
G01*
X2841259Y4355000D03*
D16*
G01*
X2420000Y4355000D03*
D17*
G01*
X2346259Y4355000D03*
D16*
G01*
X1925000Y4355000D03*
D12*
G01*
X2814610Y4075000D03*
G01*
X2165000Y4075000D03*
G01*
X2789610Y4230000D03*
G01*
X2140000Y4230000D03*
G01*
X2930000Y4881260D03*
G01*
X2930000Y4460000D03*
D23*
G01*
X2030000Y4740000D03*
G01*
X2030000Y4640000D03*
D22*
G01*
X2030000Y4540000D03*
D12*
G01*
X2790000Y4485000D03*
G01*
X2140390Y4485000D03*
D18*
G01*
X1665000Y4740000D03*
D21*
G01*
X1765000Y4740000D03*
D20*
G01*
X3155000Y4595000D03*
D18*
G01*
X3155000Y4695000D03*
D17*
G01*
X2841259Y4920000D03*
D16*
G01*
X2420000Y4920000D03*
D17*
G01*
X2346259Y4920000D03*
D16*
G01*
X1925000Y4920000D03*
D12*
G01*
X2814610Y4640000D03*
G01*
X2165000Y4640000D03*
G01*
X2789610Y4795000D03*
G01*
X2140000Y4795000D03*
G01*
X2809610Y5350000D03*
G01*
X2160000Y5350000D03*
G01*
X2834610Y5195000D03*
G01*
X2185000Y5195000D03*
D17*
G01*
X2366259Y5475000D03*
D16*
G01*
X1945000Y5475000D03*
D17*
G01*
X2861259Y5475000D03*
D16*
G01*
X2440000Y5475000D03*
D20*
G01*
X3175000Y5150000D03*
D18*
G01*
X3175000Y5250000D03*
G01*
X1685000Y5295000D03*
D21*
G01*
X1785000Y5295000D03*
D12*
G01*
X2160390Y5040000D03*
G01*
X2810000Y5040000D03*
D23*
G01*
X2050000Y5295000D03*
G01*
X2050000Y5195000D03*
D22*
G01*
X2050000Y5095000D03*
D12*
G01*
X2950000Y5436260D03*
G01*
X2950000Y5015000D03*
G01*
X2779610Y5910000D03*
G01*
X2130000Y5910000D03*
G01*
X2804610Y5755000D03*
G01*
X2155000Y5755000D03*
D17*
G01*
X2336259Y6035000D03*
D16*
G01*
X1915000Y6035000D03*
D17*
G01*
X2831259Y6035000D03*
D16*
G01*
X2410000Y6035000D03*
D20*
G01*
X3145000Y5710000D03*
D18*
G01*
X3145000Y5810000D03*
G01*
X1655000Y5855000D03*
D21*
G01*
X1755000Y5855000D03*
D12*
G01*
X2130390Y5600000D03*
G01*
X2780000Y5600000D03*
D23*
G01*
X2020000Y5855000D03*
G01*
X2020000Y5755000D03*
D22*
G01*
X2020000Y5655000D03*
D12*
G01*
X2920000Y5996260D03*
G01*
X2920000Y5575000D03*
G01*
X2920000Y6551260D03*
G01*
X2920000Y6130000D03*
G01*
X2885000Y3765000D03*
G01*
X2885000Y3343740D03*
D14*
G01*
X1455000Y8930000D03*
G01*
X1155000Y8930000D03*
G01*
X955000Y8930000D03*
G01*
X755000Y8930000D03*
G01*
X755000Y9230000D03*
G01*
X955000Y9230000D03*
G01*
X1155000Y9230000D03*
D15*
G01*
X1455000Y9230000D03*
G01*
X1460000Y8720000D03*
D14*
G01*
X1460000Y8420000D03*
G01*
X1160000Y8420000D03*
G01*
X960000Y8420000D03*
G01*
X760000Y8420000D03*
G01*
X760000Y8720000D03*
G01*
X960000Y8720000D03*
G01*
X1160000Y8720000D03*
G01*
X1468170Y7404330D03*
G01*
X1168170Y7404330D03*
G01*
X968170Y7404330D03*
G01*
X768170Y7404330D03*
G01*
X768170Y7704330D03*
G01*
X968170Y7704330D03*
G01*
X1168170Y7704330D03*
D15*
G01*
X1468169Y7704330D03*
D14*
G01*
X1465000Y7915000D03*
G01*
X1165000Y7915000D03*
G01*
X965000Y7915000D03*
G01*
X765000Y7915000D03*
G01*
X765000Y8215000D03*
G01*
X965000Y8215000D03*
G01*
X1165000Y8215000D03*
D15*
G01*
X1465000Y8215000D03*
D14*
G01*
X1470000Y6895000D03*
G01*
X1170000Y6895000D03*
G01*
X970000Y6895000D03*
G01*
X770000Y6895000D03*
G01*
X770000Y7195000D03*
G01*
X970000Y7195000D03*
G01*
X1170000Y7195000D03*
D15*
G01*
X1470000Y7195000D03*
G01*
X1446830Y4480670D03*
D14*
G01*
X1146830Y4480670D03*
G01*
X946829Y4480670D03*
G01*
X746829Y4480670D03*
G01*
X746829Y4180670D03*
G01*
X946829Y4180670D03*
G01*
X1146830Y4180670D03*
G01*
X1446830Y4180670D03*
D15*
G01*
X1410000Y1650000D03*
D14*
G01*
X1110000Y1650000D03*
G01*
X910000Y1650000D03*
G01*
X710000Y1650000D03*
G01*
X710000Y1350000D03*
G01*
X910000Y1350000D03*
G01*
X1110000Y1350000D03*
G01*
X1410000Y1350000D03*
D15*
G01*
X1446830Y5475670D03*
D14*
G01*
X1146830Y5475670D03*
G01*
X946829Y5475670D03*
G01*
X746829Y5475670D03*
G01*
X746829Y5175670D03*
G01*
X946829Y5175670D03*
G01*
X1146830Y5175670D03*
G01*
X1446830Y5175670D03*
D15*
G01*
X1410000Y2660000D03*
D14*
G01*
X1110000Y2660000D03*
G01*
X910000Y2660000D03*
G01*
X710000Y2660000D03*
G01*
X710000Y2360000D03*
G01*
X910000Y2360000D03*
G01*
X1110000Y2360000D03*
G01*
X1410000Y2360000D03*
D15*
G01*
X1408169Y2154330D03*
D14*
G01*
X1108170Y2154330D03*
G01*
X908170Y2154330D03*
G01*
X708170Y2154330D03*
G01*
X708170Y1854330D03*
G01*
X908170Y1854330D03*
G01*
X1108170Y1854330D03*
G01*
X1408170Y1854330D03*
G01*
X1446830Y4680670D03*
G01*
X1146830Y4680670D03*
G01*
X946829Y4680670D03*
G01*
X746829Y4680670D03*
G01*
X746829Y4980670D03*
G01*
X946829Y4980670D03*
G01*
X1146830Y4980670D03*
D15*
G01*
X1446830Y4980670D03*
D14*
G01*
X1446830Y5680670D03*
G01*
X1146830Y5680670D03*
G01*
X946829Y5680670D03*
G01*
X746829Y5680670D03*
G01*
X746829Y5980670D03*
G01*
X946829Y5980670D03*
G01*
X1146830Y5980670D03*
D15*
G01*
X1446830Y5980670D03*
D14*
G01*
X1108170Y3174330D03*
G01*
X908170Y3174330D03*
G01*
X708170Y3174330D03*
G01*
X708170Y2874330D03*
G01*
X908170Y2874330D03*
G01*
X1108170Y2874330D03*
G01*
X1408170Y2874330D03*
D15*
G01*
X1408169Y3174330D03*
G01*
X1446830Y6475670D03*
D14*
G01*
X1146830Y6475670D03*
G01*
X946829Y6475670D03*
G01*
X746829Y6475670D03*
G01*
X746829Y6175670D03*
G01*
X946829Y6175670D03*
G01*
X1146830Y6175670D03*
G01*
X1446830Y6175670D03*
D15*
G01*
X1410000Y3685000D03*
D14*
G01*
X1110000Y3685000D03*
G01*
X910000Y3685000D03*
G01*
X710000Y3685000D03*
G01*
X710000Y3385000D03*
G01*
X910000Y3385000D03*
G01*
X1110000Y3385000D03*
G01*
X1410000Y3385000D03*
D23*
G01*
X2020000Y6410000D03*
G01*
X2020000Y6310000D03*
D22*
G01*
X2020000Y6210000D03*
D12*
G01*
X2130390Y6155000D03*
G01*
X2780000Y6155000D03*
D26*
G01*
X3590000Y9130000D03*
G01*
X3590000Y8933150D03*
G01*
X3475000Y3386850D03*
G01*
X3475000Y3190000D03*
D23*
G01*
X1965000Y3620000D03*
G01*
X1965000Y3520000D03*
D22*
G01*
X1965000Y3420000D03*
D12*
G01*
X2105390Y3365000D03*
G01*
X2755000Y3365000D03*
D18*
G01*
X1655000Y6410000D03*
D21*
G01*
X1755000Y6410000D03*
D20*
G01*
X3145000Y6265000D03*
D18*
G01*
X3145000Y6365000D03*
G01*
X3100000Y3590000D03*
D20*
G01*
X3100000Y3490000D03*
D18*
G01*
X1605000Y3585000D03*
D21*
G01*
X1705000Y3585000D03*
D17*
G01*
X2831259Y6590000D03*
D16*
G01*
X2410000Y6590000D03*
D17*
G01*
X2336259Y6590000D03*
D16*
G01*
X1915000Y6590000D03*
D17*
G01*
X2791259Y3800000D03*
D16*
G01*
X2370000Y3800000D03*
D17*
G01*
X2280000Y3800000D03*
D16*
G01*
X1858740Y3800000D03*
D12*
G01*
X2804610Y6310000D03*
G01*
X2155000Y6310000D03*
G01*
X2755000Y3515000D03*
G01*
X2105390Y3515000D03*
G01*
X2779610Y6465000D03*
G01*
X2130000Y6465000D03*
G01*
X2749610Y3680000D03*
G01*
X2100000Y3680000D03*
D35*
G01*
X120000Y9440000D03*
G01*
X3694629Y115000D03*
G01*
X120000Y120000D03*
G01*
X3695000Y9450000D03*
M02*
