G04 Layer: TopLayer*
G04 EasyEDA v6.5.39, 2023-12-18 16:16:31*
G04 0a3b229aafce46c6802f92c5d4cde22f,84f6a191e6f14c5fb88c895b5cbe8e50,10*
G04 Gerber Generator version 0.2*
G04 Scale: 100 percent, Rotated: No, Reflected: No *
G04 Dimensions in inches *
G04 leading zeros omitted , absolute positions ,3 integer and 6 decimal *
%FSLAX36Y36*%
%MOIN*%

%AMMACRO1*4,1,42,-0.0492,1.2205,0.0492,1.2205,0.0492,1.2205,0.0492,1.2205,0.0492,1.2205,0.068,1.2167,0.084,1.2061,0.0947,1.1901,0.0984,1.1713,0.0984,1.1713,0.0984,1.1713,0.0984,1.1713,0.0984,-1.1713,0.0984,-1.1713,0.0984,-1.1713,0.0984,-1.1713,0.0947,-1.1901,0.084,-1.2061,0.068,-1.2167,0.0492,-1.2205,0.0492,-1.2205,0.0492,-1.2205,0.0492,-1.2205,-0.0492,-1.2205,-0.0492,-1.2205,-0.0492,-1.2205,-0.0492,-1.2205,-0.068,-1.2167,-0.084,-1.2061,-0.0947,-1.1901,-0.0984,-1.1713,-0.0984,-1.1713,-0.0984,-1.1713,-0.0984,-1.1713,-0.0984,1.1713,-0.0984,1.1713,-0.0984,1.1713,-0.0984,1.1713,-0.0947,1.1901,-0.084,1.2061,-0.068,1.2167,-0.0492,1.2205,-0.0492,1.2205,0*%
%AMMACRO2*4,1,30,-0.0492,0.0984,0.0492,0.0984,0.0492,0.0984,0.068,0.0947,0.084,0.084,0.0947,0.068,0.0984,0.0492,0.0984,0.0492,0.0984,-0.0492,0.0984,-0.0492,0.0947,-0.068,0.084,-0.084,0.068,-0.0947,0.0492,-0.0984,0.0492,-0.0984,0.0492,-0.0984,0.0492,-0.0984,-0.0492,-0.0984,-0.0492,-0.0984,-0.068,-0.0947,-0.084,-0.084,-0.0947,-0.068,-0.0984,-0.0492,-0.0984,-0.0492,-0.0984,0.0492,-0.0984,0.0492,-0.0947,0.068,-0.084,0.084,-0.068,0.0947,-0.0492,0.0984,-0.0492,0.0984,0*%
%AMMACRO3*4,1,28,-0.0492,0.0984,0.0492,0.0984,0.0492,0.0984,0.068,0.0947,0.084,0.084,0.0947,0.068,0.0984,0.0492,0.0984,0.0492,0.0984,-0.0492,0.0984,-0.0492,0.0947,-0.068,0.084,-0.084,0.068,-0.0947,0.0492,-0.0984,0.0492,-0.0984,-0.0492,-0.0984,-0.0492,-0.0984,-0.068,-0.0947,-0.084,-0.084,-0.0947,-0.068,-0.0984,-0.0492,-0.0984,-0.0492,-0.0984,0.0492,-0.0984,0.0492,-0.0947,0.068,-0.084,0.084,-0.068,0.0947,-0.0492,0.0984,-0.0492,0.0984,0*%
%AMMACRO4*4,1,28,0.0492,-0.0984,-0.0492,-0.0984,-0.0492,-0.0984,-0.068,-0.0947,-0.084,-0.084,-0.0947,-0.068,-0.0984,-0.0492,-0.0984,-0.0492,-0.0984,0.0492,-0.0984,0.0492,-0.0947,0.068,-0.084,0.084,-0.068,0.0947,-0.0492,0.0984,-0.0492,0.0984,0.0492,0.0984,0.0492,0.0984,0.068,0.0947,0.084,0.084,0.0947,0.068,0.0984,0.0492,0.0984,0.0492,0.0984,-0.0492,0.0984,-0.0492,0.0947,-0.068,0.084,-0.084,0.068,-0.0947,0.0492,-0.0984,0.0492,-0.0984,0*%
%ADD10C,0.1575*%
%ADD11C,0.0787*%
%ADD12MACRO1*%
%ADD13MACRO2*%
%ADD14MACRO3*%
%ADD15MACRO4*%
%ADD16R,0.0906X0.1378*%
%ADD17C,0.0472*%
%ADD18C,0.0886*%
%ADD19C,0.0106*%
%ADD20C,0.0591*%
%ADD21R,0.0591X0.0591*%
%ADD22R,0.0453X0.0453*%
%ADD23C,0.0453*%
%ADD24C,0.0557*%
%ADD25R,0.0557X0.0557*%
%ADD26R,0.0815X0.0815*%
%ADD27C,0.0815*%
%ADD28R,0.0679X0.0679*%
%ADD29C,0.0679*%
%ADD30C,0.1378*%
%ADD31R,0.1378X0.0689*%
%ADD32R,0.0689X0.0689*%
%ADD33C,0.0709*%
%ADD34R,0.0709X0.0709*%
%ADD35R,0.0984X0.0815*%
%ADD36O,0.098425X0.081496*%
%ADD37C,0.0600*%
%ADD38C,0.1575*%

%LPD*%
D10*
X390000Y6175672D02*
G01*
X746826Y6175672D01*
D11*
X611938Y9346937D02*
G01*
X677186Y9412186D01*
X782186Y9412186D01*
X810000Y9440000D01*
X2082138Y9117138D02*
G01*
X2151259Y9186260D01*
X2211757Y9186260D01*
X2283379Y9257881D01*
X2283379Y9323379D01*
X2355000Y9395000D01*
X2445000Y9395000D01*
X1965000Y7985000D02*
G01*
X2035000Y7985000D01*
X2045000Y7985000D01*
X2035000Y7985000D01*
X2040000Y7990000D01*
X2075761Y7990000D01*
X2107500Y8022500D02*
G01*
X2141259Y8056260D01*
X2206757Y8056260D01*
X2278379Y8127881D01*
X2278379Y8193379D01*
X2350000Y8265000D01*
X2440000Y8265000D01*
X2127446Y7495000D02*
G01*
X2057973Y7425527D01*
X2127446Y7495000D01*
X1466923Y7403077D02*
G01*
X1480000Y7390000D01*
X1795568Y7390000D01*
X1825568Y7420000D01*
X1875000Y7420000D01*
X1879472Y7424473D01*
X2029472Y7424473D01*
X2030000Y7425000D01*
X2030527Y7425527D01*
X2057973Y7425527D01*
X2135000Y7500000D02*
G01*
X2227254Y7500000D01*
X2273379Y7546125D01*
X2273379Y7633379D01*
X2345000Y7705000D01*
X2435000Y7705000D01*
X1470000Y6895000D02*
G01*
X1543897Y6895000D01*
X1668897Y6770000D01*
X1750000Y6770000D01*
X1795000Y6770000D01*
X1894472Y6869473D01*
X2029472Y6869473D01*
X2030000Y6870000D01*
X2030527Y6870527D01*
X2057973Y6870527D01*
X2131223Y6943777D01*
X1446825Y4680672D02*
G01*
X1529327Y4680672D01*
X1530000Y4680000D01*
X1610000Y4600000D01*
X1830000Y4600000D01*
X1869472Y4639473D01*
X1904472Y4639473D01*
X2029472Y4639473D01*
X2030000Y4640000D01*
X2030527Y4640527D01*
X2062301Y4640527D01*
X2134766Y4712992D01*
X2136774Y4715000D01*
X2260000Y4715000D01*
X2268432Y4723431D02*
G01*
X2346259Y4801260D01*
X2346259Y4920000D01*
X2420000Y4920000D01*
X1446825Y4180671D02*
G01*
X1509327Y4180671D01*
X1620000Y4070000D01*
X1885000Y4070000D01*
X1889472Y4074473D01*
X2029472Y4074473D01*
X2030000Y4075000D01*
X2030527Y4075527D01*
X2062301Y4075527D01*
X2141774Y4155000D01*
X2270000Y4155000D01*
X2279394Y4159394D02*
G01*
X2346259Y4226260D01*
X2346259Y4355000D01*
X2420000Y4355000D01*
X2007695Y3520527D02*
G01*
X2078426Y3591259D01*
X2136757Y3591259D01*
X2208379Y3662881D01*
X2208379Y3728379D01*
X2280000Y3800000D01*
X2370000Y3800000D01*
X1991273Y1285000D02*
G01*
X1991273Y1285526D01*
X2017973Y1285526D01*
X2082446Y1350000D01*
X2223875Y1350000D01*
X2270000Y1396125D01*
X2270000Y1545000D01*
X2135000Y1250000D02*
G01*
X2515000Y1250000D01*
X2607992Y1342992D01*
X2295000Y1555000D02*
G01*
X2385000Y1555000D01*
X1425000Y670000D02*
G01*
X1470000Y625000D01*
X1855000Y625000D01*
X1865000Y635000D01*
X1914472Y684473D01*
X1929472Y684473D01*
X2054472Y684473D01*
X2055000Y685000D01*
X2055527Y685526D01*
X2087301Y685526D01*
X2166774Y765000D01*
X2232750Y765000D01*
X2371259Y903510D01*
X2371259Y965000D01*
X2445000Y965000D01*
X1455000Y5180000D02*
G01*
X1910000Y5180000D01*
X1924472Y5194473D01*
X2049472Y5194473D01*
X2050000Y5195000D01*
X2050527Y5195527D01*
X2080527Y5195527D01*
X2157956Y5272956D01*
X2320135Y5272956D01*
X2366259Y5319081D01*
X2366259Y5475000D01*
X1446825Y5680672D02*
G01*
X1457499Y5670000D01*
X1810000Y5670000D01*
X1894472Y5754473D01*
X2019472Y5754473D01*
X2020000Y5755000D01*
X2020527Y5755527D01*
X2052301Y5755527D01*
X2131774Y5835000D01*
X2225000Y5835000D01*
X2336259Y5946260D01*
X2336259Y6035000D01*
X2410000Y6035000D01*
X2266938Y6410391D02*
G01*
X2290000Y6433452D01*
X2290000Y6521774D01*
X2336259Y6568033D01*
X2336259Y6590000D01*
X2410000Y6590000D01*
X2057328Y6319882D02*
G01*
X2124774Y6387328D01*
X2243875Y6387328D01*
X2266937Y6410390D01*
X1446825Y6175672D02*
G01*
X1760672Y6175672D01*
X1894472Y6309473D01*
X2019472Y6309473D01*
X2020527Y6310527D01*
X2040527Y6310527D01*
X1460000Y8415000D02*
G01*
X1771832Y8415000D01*
X1901304Y8544473D01*
X2039472Y8544473D01*
X2040000Y8545000D01*
X2040527Y8545527D01*
X2067973Y8545527D01*
X2136223Y8613777D01*
X2153427Y8616260D02*
G01*
X2211757Y8616260D01*
X2283379Y8687881D01*
X2283379Y8753379D01*
X2355000Y8825000D01*
X2445000Y8825000D01*
X1635000Y9500000D02*
G01*
X1640000Y9500000D01*
X3220000Y9500000D01*
X3590000Y9130000D01*
X1455000Y9230000D02*
G01*
X1630000Y9230000D01*
X1680000Y9180000D01*
X1680000Y9385000D01*
X1446825Y4480672D02*
G01*
X1446825Y4393174D01*
X1632500Y4207500D01*
X1751825Y4326826D01*
X1751825Y4430674D01*
X1869325Y4430674D01*
X1920000Y4380000D01*
X1776825Y1040673D02*
G01*
X1826250Y991250D01*
X1852500Y965000D01*
X1950000Y965000D01*
X1410000Y975000D02*
G01*
X1600000Y785000D01*
X1690000Y785000D01*
X1701259Y796260D01*
X1701259Y866260D01*
X1826250Y991250D01*
X1470000Y7195000D02*
G01*
X1470000Y7180000D01*
X1659429Y6990571D01*
X1670000Y6980000D01*
X1670000Y6935000D01*
X1656825Y8270674D02*
G01*
X1617500Y8310000D01*
X1439503Y8310000D01*
X1360000Y8389502D01*
X1360000Y8871125D01*
X1360000Y9345000D01*
X1340000Y9365000D01*
X1340000Y9400000D01*
X1430000Y9490000D01*
X1640000Y9490000D01*
X1468174Y7704328D02*
G01*
X1468174Y7691826D01*
X1670000Y7490000D01*
X1670000Y7490000D01*
X1670000Y7555000D01*
X1786825Y7671826D01*
X1786825Y7720674D01*
X1802500Y7705000D01*
X1923740Y7705000D01*
X1659429Y6990571D02*
G01*
X1776825Y7107968D01*
X1776825Y7160674D01*
X1787500Y7150000D01*
X1923740Y7150000D01*
X1446825Y6475672D02*
G01*
X1589327Y6475672D01*
X1655000Y6410000D01*
X1655000Y6460000D01*
X1771825Y6576826D01*
X1771825Y6620674D01*
X1884325Y6620674D01*
X1915000Y6590000D01*
X1446825Y5980672D02*
G01*
X1529327Y5980672D01*
X1655000Y5855000D01*
X1655000Y5915000D01*
X1756825Y6016826D01*
X1756825Y6060674D01*
X1889325Y6060674D01*
X1915000Y6035000D01*
X1446825Y4980672D02*
G01*
X1446825Y4958174D01*
X1665000Y4740000D01*
X1665000Y4740000D01*
X1665000Y4790000D01*
X1761825Y4886826D01*
X1761825Y4965674D01*
X1879325Y4965674D01*
X1925000Y4920000D01*
X1632500Y4207500D02*
G01*
X1665000Y4175000D01*
X1620000Y1905000D02*
G01*
X1620000Y1975000D01*
X1710000Y2065000D01*
X1710000Y2137500D01*
X1856241Y2137500D01*
X1873740Y2120000D01*
X1720000Y1905000D02*
G01*
X1775000Y1905000D01*
X1900118Y2030118D01*
X2084882Y2030118D01*
X2115000Y2000000D01*
X1720000Y1340000D02*
G01*
X1795000Y1340000D01*
X1969884Y1514884D01*
X2035115Y1514884D01*
X2097500Y1452500D01*
X3290000Y740000D02*
G01*
X3331575Y698425D01*
X3406575Y698425D01*
X3500000Y605000D01*
X3510000Y605000D01*
X2955000Y926260D02*
G01*
X3141259Y740000D01*
X3180000Y740000D01*
X3275000Y740000D01*
X1581825Y3245674D02*
G01*
X1547500Y3280000D01*
X1341125Y3280000D01*
X1295000Y3326125D01*
X1295000Y3715000D01*
X1320000Y3740000D01*
X1320000Y3965000D01*
X1320000Y4631125D01*
X1320000Y5126125D01*
X1320000Y5626125D01*
X1366125Y5580000D01*
X1515000Y5580000D01*
X1579325Y5515674D01*
X1666825Y5515674D01*
X1320000Y3965000D02*
G01*
X1432500Y3965000D01*
X1586825Y3810674D01*
X1775000Y8825000D02*
G01*
X1933740Y8825000D01*
X290000Y840000D02*
G01*
X131125Y840000D01*
X85000Y886125D01*
X80000Y881125D01*
X80000Y675046D01*
X126125Y628921D01*
X206079Y628921D01*
X240000Y595000D01*
X85000Y886125D02*
G01*
X85000Y993874D01*
X131125Y1040000D01*
X348625Y1040000D01*
X302500Y993874D01*
X302500Y834837D01*
X660000Y834837D01*
X1363940Y340000D02*
G01*
X1363940Y63940D01*
X1355000Y55000D01*
X1196125Y55000D01*
X1191125Y50000D01*
X956125Y50000D01*
X910000Y96124D01*
X910000Y340000D01*
X302500Y575000D02*
G01*
X302500Y595000D01*
X302500Y834837D01*
X340000Y595000D02*
G01*
X630000Y595000D01*
X710000Y675000D01*
D10*
X675000Y705000D02*
G01*
X675000Y834837D01*
X675000Y960000D01*
D11*
X348625Y1040000D02*
G01*
X595000Y1040000D01*
X642500Y992500D01*
D10*
X900000Y490000D02*
G01*
X900000Y960000D01*
D11*
X1196125Y55000D02*
G01*
X1150000Y101124D01*
X1150000Y280000D01*
X960000Y280000D01*
X955000Y285000D01*
X910000Y330000D01*
X910000Y970000D01*
D10*
X1405000Y265000D02*
G01*
X1505000Y265000D01*
D11*
X1090000Y535000D02*
G01*
X1340000Y535000D01*
X1365000Y510000D01*
X1365000Y357842D01*
X1362205Y355047D01*
X1362205Y321125D01*
X1316080Y275000D01*
X1157663Y275000D01*
X1152663Y280000D01*
X1150000Y280000D01*
X1150000Y488874D01*
X1103875Y535000D01*
X930000Y535000D01*
D10*
X1120000Y705000D02*
G01*
X1120000Y965000D01*
X1110000Y975000D01*
X1112289Y977289D01*
X1112289Y1107750D01*
X1020038Y1200000D01*
X300000Y1200000D01*
X163070Y1336929D01*
X163070Y1635000D01*
D11*
X1606825Y1570674D02*
G01*
X1606825Y1581782D01*
X1477348Y1711259D01*
X1466446Y1711259D01*
X1422705Y1755000D01*
X1330000Y1755000D01*
X1280000Y1805000D01*
X1280000Y1331175D01*
X1431175Y1180000D01*
X1514503Y1180000D01*
X1543243Y1151260D01*
X1566240Y1151260D01*
X1676825Y1040673D01*
D10*
X135000Y1645000D02*
G01*
X135000Y2085000D01*
X135000Y2630000D01*
X135000Y3110000D01*
X135000Y3605000D01*
X335000Y3675000D02*
G01*
X400000Y3675000D01*
X670000Y3945000D01*
X1070000Y3945000D01*
X1145000Y3700000D02*
G01*
X1145000Y4178846D01*
X1146825Y4180671D01*
X1145000Y4182498D01*
X1145000Y4478846D01*
X1146825Y4480672D01*
D11*
X1420000Y1345000D02*
G01*
X1475000Y1345000D01*
X1580000Y1240000D01*
X1808172Y1240000D01*
X1848172Y1280000D01*
X2000000Y1280000D01*
X1320000Y5626125D02*
G01*
X1320000Y6165000D01*
X1320000Y6550000D01*
X1355000Y6585000D01*
X1355000Y6690000D01*
X1445000Y6690000D01*
X1510000Y6625000D01*
X1667500Y6625000D01*
X1671825Y6620674D01*
D10*
X1146825Y6475672D02*
G01*
X1150000Y6478846D01*
X1150000Y6875000D01*
D11*
X1355000Y6690000D02*
G01*
X1355000Y7336125D01*
X1360000Y7341125D01*
X1406125Y7295000D01*
X1542500Y7295000D01*
X1676825Y7160674D01*
X2205000Y660000D02*
G01*
X2220000Y645000D01*
X2525000Y645000D01*
X2637992Y757992D01*
X2869841Y757992D01*
X2872833Y755000D01*
X2895000Y755000D01*
X3010000Y640000D01*
X3185000Y640000D01*
X2055000Y585000D02*
G01*
X2110000Y530000D01*
X2165394Y530000D01*
X2620000Y530000D01*
X2700000Y610000D01*
X2850000Y610000D01*
X2955000Y505000D01*
X1790000Y785000D02*
G01*
X1845000Y785000D01*
X1935118Y875117D01*
X2129882Y875117D01*
X2145000Y860000D01*
X3413150Y705000D02*
G01*
X3510000Y801850D01*
D10*
X1157500Y6907500D02*
G01*
X1157500Y7182500D01*
X1146825Y6175672D02*
G01*
X1150000Y6178846D01*
X1150000Y6472498D01*
X1150000Y4480672D02*
G01*
X1150000Y4680672D01*
X1150000Y4980672D01*
X1150000Y5175672D01*
X1150000Y5475672D01*
X1150000Y5980672D01*
X1150000Y6175672D01*
X1155000Y7195000D02*
G01*
X1155000Y7404328D01*
X1155000Y7704328D01*
X1155000Y7915000D01*
X1155000Y8215000D01*
X1155000Y8420000D01*
X1155000Y8930000D01*
X1155000Y9230000D01*
D11*
X2030000Y3975000D02*
G01*
X2085000Y3920000D01*
X2140394Y3920000D01*
X2595000Y3920000D01*
X2675000Y4000000D01*
X2825000Y4000000D01*
X2930000Y3895000D01*
D10*
X385000Y5745000D02*
G01*
X682499Y5745000D01*
D11*
X1320000Y6165000D02*
G01*
X1410000Y6075000D01*
X1590000Y6075000D01*
X1604325Y6060674D01*
X1656825Y6060674D01*
X2920000Y6551260D02*
G01*
X3106259Y6365000D01*
X3145000Y6365000D01*
X3296850Y6365000D01*
X3515000Y6146849D01*
X2170000Y6285000D02*
G01*
X2185000Y6270000D01*
X2490000Y6270000D01*
X2602992Y6382992D01*
X2834841Y6382992D01*
X2837833Y6380000D01*
X2860000Y6380000D01*
X2975000Y6265000D01*
X3145000Y6265000D01*
X2020000Y6210000D02*
G01*
X2075000Y6155000D01*
X2130394Y6155000D01*
X2585000Y6155000D01*
X2665000Y6235000D01*
X2815000Y6235000D01*
X2920000Y6130000D01*
X2920000Y5996260D02*
G01*
X3106259Y5810000D01*
X3145000Y5810000D01*
X3300000Y5810000D01*
X3440000Y5950000D01*
X3515000Y5950000D01*
X2170000Y5730000D02*
G01*
X2185000Y5715000D01*
X2490000Y5715000D01*
X2602992Y5827992D01*
X2834841Y5827992D01*
X2837833Y5825000D01*
X2860000Y5825000D01*
X2975000Y5710000D01*
X3145000Y5710000D01*
X2020000Y5655000D02*
G01*
X2075000Y5600000D01*
X2130394Y5600000D01*
X2585000Y5600000D01*
X2665000Y5680000D01*
X2815000Y5680000D01*
X2920000Y5575000D01*
X2950000Y5436260D02*
G01*
X3136259Y5250000D01*
X3175000Y5250000D01*
X2200000Y5170000D02*
G01*
X2215000Y5155000D01*
X2520000Y5155000D01*
X2632992Y5267992D01*
X2864841Y5267992D01*
X2867833Y5265000D01*
X2890000Y5265000D01*
X3005000Y5150000D01*
X3175000Y5150000D01*
X3185000Y5250000D02*
G01*
X3321850Y5250000D01*
X3540000Y5031849D01*
X2380000Y5475000D02*
G01*
X2440000Y5475000D01*
X1755000Y6410000D02*
G01*
X1810000Y6410000D01*
X1900118Y6500118D01*
X2094882Y6500118D01*
X2110000Y6485000D01*
X1755000Y5855000D02*
G01*
X1810000Y5855000D01*
X1900118Y5945118D01*
X2094882Y5945118D01*
X2110000Y5930000D01*
X1785000Y5295000D02*
G01*
X1840000Y5295000D01*
X1930118Y5385118D01*
X2124882Y5385118D01*
X2140000Y5370000D01*
X1446825Y5475672D02*
G01*
X1627499Y5295000D01*
X1685000Y5295000D01*
X1685000Y5364424D01*
X1766825Y5446250D01*
X1766825Y5515674D01*
X1807500Y5475000D01*
X1945000Y5475000D01*
X2050000Y5095000D02*
G01*
X2105000Y5040000D01*
X2160394Y5040000D01*
X2615000Y5040000D01*
X2695000Y5120000D01*
X2845000Y5120000D01*
X2950000Y5015000D01*
X2930000Y4881260D02*
G01*
X3116259Y4695000D01*
X3155000Y4695000D01*
X3290000Y4695000D01*
X3430000Y4835000D01*
X3540000Y4835000D01*
X2180000Y4615000D02*
G01*
X2195000Y4600000D01*
X2500000Y4600000D01*
X2612992Y4712992D01*
X2844841Y4712992D01*
X2847833Y4710000D01*
X2870000Y4710000D01*
X2985000Y4595000D01*
X3155000Y4595000D01*
X2030000Y4540000D02*
G01*
X2085000Y4485000D01*
X2140394Y4485000D01*
X2595000Y4485000D01*
X2675000Y4565000D01*
X2825000Y4565000D01*
X2930000Y4460000D01*
X2930000Y4316260D02*
G01*
X3116259Y4130000D01*
X3155000Y4130000D01*
X3448150Y4130000D01*
X3443150Y4125000D02*
G01*
X3540000Y4221849D01*
X2180000Y4050000D02*
G01*
X2195000Y4035000D01*
X2500000Y4035000D01*
X2612992Y4147992D01*
X2844841Y4147992D01*
X2847833Y4145000D01*
X2870000Y4145000D01*
X2985000Y4030000D01*
X3155000Y4030000D01*
X3436575Y4118424D02*
G01*
X3530000Y4025000D01*
X3540000Y4025000D01*
X1765000Y4740000D02*
G01*
X1820000Y4740000D01*
X1910118Y4830118D01*
X2104882Y4830118D01*
X2120000Y4815000D01*
X1765000Y4175000D02*
G01*
X1820000Y4175000D01*
X1910118Y4265118D01*
X2104882Y4265118D01*
X2120000Y4250000D01*
D10*
X380000Y6472500D02*
G01*
X392500Y6472500D01*
X507500Y6472500D01*
X675000Y6640000D01*
X1057749Y6640000D01*
X745000Y5730000D02*
G01*
X746826Y5731826D01*
X746826Y5980672D01*
D11*
X1320000Y5126125D02*
G01*
X1366125Y5080000D01*
X1520000Y5080000D01*
X1634325Y4965674D01*
X1661825Y4965674D01*
D10*
X746826Y6220672D02*
G01*
X746826Y6430672D01*
X385000Y5175672D02*
G01*
X746826Y5175672D01*
X746826Y5475672D01*
X385000Y4725672D02*
G01*
X746826Y4725672D01*
X746826Y4935672D01*
D11*
X1320000Y4631125D02*
G01*
X1366125Y4585000D01*
X1497500Y4585000D01*
X1651825Y4430674D01*
D10*
X385000Y4190000D02*
G01*
X721826Y4190000D01*
X746826Y4215000D01*
X746826Y4445000D01*
X1115000Y1390000D02*
G01*
X1115000Y1854327D01*
X1115000Y2360000D01*
X1115000Y2660000D01*
X1115000Y3174328D01*
X1115000Y3645000D01*
X710000Y1385000D02*
G01*
X710000Y1650000D01*
X340000Y1650000D01*
D11*
X2620000Y1345000D02*
G01*
X2885000Y1345000D01*
X2985000Y1245000D01*
X3115000Y1245000D01*
X3337500Y1342500D02*
G01*
X3485000Y1195000D01*
X2905000Y1495000D02*
G01*
X3055000Y1345000D01*
X3115000Y1345000D01*
X3340000Y1345000D01*
X3386850Y1391850D01*
X3485000Y1391850D01*
X2000000Y1185000D02*
G01*
X2035118Y1185000D01*
X2100118Y1120000D01*
X2120394Y1120000D01*
X2666774Y1120000D01*
X2739766Y1192992D01*
X2805748Y1192992D01*
X2900000Y1098740D01*
X1620000Y1340000D02*
G01*
X1620000Y1395000D01*
X1705000Y1480000D01*
X1705000Y1568847D01*
X1706825Y1570674D01*
X1712500Y1565000D01*
X1868740Y1565000D01*
X1620000Y1395000D02*
G01*
X1620000Y1400000D01*
X1410000Y1610000D01*
X1410000Y1635000D01*
X1415000Y3385000D02*
G01*
X1695000Y3385000D01*
X1829472Y3519473D01*
X1964472Y3519473D01*
X1965000Y3520000D01*
X1705000Y3585000D02*
G01*
X1830118Y3710118D01*
X2069882Y3710118D01*
X2100000Y3680000D01*
X1410000Y3685000D02*
G01*
X1510000Y3585000D01*
X1605000Y3585000D01*
X1605000Y3635000D01*
X1695000Y3725000D01*
X1695000Y3802500D01*
X1697500Y3800000D01*
X1858740Y3800000D01*
X1975000Y2855000D02*
G01*
X1976378Y2853621D01*
X2061772Y2853621D01*
X2115394Y2800000D01*
X2661774Y2800000D01*
X2734766Y2872992D01*
X2800748Y2872992D01*
X2895000Y2778740D01*
X1757500Y2872500D02*
G01*
X1839472Y2954473D01*
X1974472Y2954473D01*
X1975000Y2955000D01*
X2017695Y2955527D02*
G01*
X2088426Y3026259D01*
X2146757Y3026259D01*
X2218379Y3097881D01*
X2218379Y3163379D01*
X2290000Y3235000D01*
X2380000Y3235000D01*
X1715000Y3020000D02*
G01*
X1840118Y3145118D01*
X2079882Y3145118D01*
X2110000Y3115000D01*
X1681825Y3245674D02*
G01*
X1692500Y3235000D01*
X1692500Y3233858D01*
X1867599Y3233858D01*
X1868740Y3235000D01*
X1965000Y3420000D02*
G01*
X1966378Y3418621D01*
X2051772Y3418621D01*
X2105394Y3365000D01*
X2651774Y3365000D01*
X2724766Y3437992D01*
X2790748Y3437992D01*
X2885000Y3343740D01*
X1980000Y1740000D02*
G01*
X1981378Y1738621D01*
X2066772Y1738621D01*
X2120394Y1685000D01*
X2666774Y1685000D01*
X2739766Y1757991D01*
X2805748Y1757991D01*
X2900000Y1663740D01*
X1408174Y1854327D02*
G01*
X1448875Y1854327D01*
X1503202Y1800000D01*
X1805000Y1800000D01*
X1844472Y1839472D01*
X1979472Y1839472D01*
X1980000Y1840000D01*
X2022695Y1840527D02*
G01*
X2093426Y1911259D01*
X2151757Y1911259D01*
X2223379Y1982880D01*
X2223379Y2048379D01*
X2295000Y2120000D01*
X2385000Y2120000D01*
X1975000Y2300000D02*
G01*
X1976378Y2298621D01*
X2061772Y2298621D01*
X2115394Y2245000D01*
X2661774Y2245000D01*
X2734766Y2317992D01*
X2800748Y2317992D01*
X2895000Y2223740D01*
X2017695Y2400527D02*
G01*
X2088426Y2471259D01*
X2146757Y2471259D01*
X2218379Y2542881D01*
X2218379Y2608379D01*
X2290000Y2680000D01*
X2380000Y2680000D01*
X1715000Y2465000D02*
G01*
X1770000Y2465000D01*
X1895118Y2590118D01*
X2079882Y2590118D01*
X2110000Y2560000D01*
X2135000Y1815000D02*
G01*
X2515000Y1815000D01*
X2607992Y1907991D01*
X2130000Y2375000D02*
G01*
X2510000Y2375000D01*
X2602992Y2467992D01*
X2130000Y2930000D02*
G01*
X2510000Y2930000D01*
X2602992Y3022992D01*
X2120000Y3495000D02*
G01*
X2500000Y3495000D01*
X2592992Y3587992D01*
X2605000Y3590000D02*
G01*
X2870000Y3590000D01*
X2970000Y3490000D01*
X3100000Y3490000D01*
X2620000Y1910000D02*
G01*
X2885000Y1910000D01*
X2985000Y1810000D01*
X3115000Y1810000D01*
X2615000Y2470000D02*
G01*
X2880000Y2470000D01*
X2980000Y2370000D01*
X3110000Y2370000D01*
X2615000Y3025000D02*
G01*
X2880000Y3025000D01*
X2980000Y2925000D01*
X3110000Y2925000D01*
X2905000Y2060000D02*
G01*
X3055000Y1910000D01*
X3115000Y1910000D01*
X3210000Y1910000D01*
X3340000Y2040000D01*
X3485000Y2040000D01*
X3125000Y2470000D02*
G01*
X3251850Y2470000D01*
X3485000Y2236850D01*
X2900000Y2620000D02*
G01*
X3050000Y2470000D01*
X3110000Y2470000D01*
X2900000Y3175000D02*
G01*
X3050000Y3025000D01*
X3110000Y3025000D01*
X3120000Y3025000D02*
G01*
X3310000Y3025000D01*
X3475000Y3190000D01*
X2890000Y3740000D02*
G01*
X3040000Y3590000D01*
X3100000Y3590000D01*
X3271850Y3590000D01*
X3475000Y3386850D01*
D10*
X718005Y2910000D02*
G01*
X718005Y3145000D01*
X340000Y3114328D02*
G01*
X648173Y3114328D01*
X335000Y3410000D02*
G01*
X685000Y3410000D01*
X710000Y3385000D01*
X708173Y1854327D02*
G01*
X708173Y2109328D01*
X693173Y2094327D01*
X345000Y2094327D01*
X710000Y2360000D02*
G01*
X710000Y2660000D01*
X684327Y2634328D01*
X340000Y2634328D01*
D11*
X1280000Y1805000D02*
G01*
X1280000Y2286125D01*
X1295000Y2301125D01*
X1295000Y2786125D01*
X1336125Y2745000D01*
X1552500Y2745000D01*
X1616825Y2680674D01*
X1408174Y2154328D02*
G01*
X1587502Y1975000D01*
X1620000Y1975000D01*
X1295000Y2301125D02*
G01*
X1341125Y2255000D01*
X1460000Y2255000D01*
X1569325Y2145674D01*
X1601825Y2145674D01*
X1410000Y2360000D02*
G01*
X1495000Y2360000D01*
X1535672Y2319328D01*
X1757500Y2319328D01*
X1410000Y2650000D02*
G01*
X1410000Y2615000D01*
X1425000Y2600000D01*
X1477500Y2600000D01*
X1602500Y2475000D01*
X1605000Y2475000D01*
X1615000Y2465000D01*
D10*
X710000Y3420000D02*
G01*
X710000Y3640000D01*
D11*
X1295000Y3326125D02*
G01*
X1290000Y3321125D01*
X1290000Y2791125D01*
X1295000Y2786125D01*
X1408174Y3174328D02*
G01*
X1460672Y3174328D01*
X1615000Y3020000D01*
X1615000Y3065000D01*
X1692500Y3142500D01*
X1692500Y3233858D01*
X1687163Y3233858D01*
X1701825Y2145674D02*
G01*
X1710000Y2137500D01*
X1615000Y2500000D02*
G01*
X1716825Y2601826D01*
X1716825Y2680674D01*
X1717500Y2680000D01*
X1868740Y2680000D01*
X1757500Y2317500D02*
G01*
X1839472Y2399473D01*
X1974472Y2399473D01*
X1975000Y2400000D01*
X1408174Y2874328D02*
G01*
X1757500Y2874328D01*
X480000Y9140000D02*
G01*
X588874Y9140000D01*
X635000Y9186125D01*
X635000Y9323875D01*
X588874Y9370000D01*
X435000Y9370000D01*
X433117Y9368117D01*
X433117Y9361157D01*
X432742Y9360782D01*
X432742Y9140000D01*
D10*
X485000Y8926413D02*
G01*
X481413Y8930000D01*
X755000Y8930000D01*
X775000Y8950000D01*
X775000Y9210000D01*
D11*
X225000Y9047137D02*
G01*
X225000Y9280000D01*
X225000Y9321992D01*
X271125Y9368117D01*
X433117Y9368117D01*
D10*
X270000Y6940000D02*
G01*
X265000Y6945000D01*
X265000Y7915000D01*
X265000Y8390000D01*
X265000Y8950000D01*
X265000Y9022742D01*
X372257Y9130000D01*
X427742Y9130000D01*
X512795Y7360000D02*
G01*
X723846Y7360000D01*
X768173Y7404328D01*
X768173Y7659328D01*
X495000Y6920000D02*
G01*
X520000Y6895000D01*
X770000Y6895000D01*
X500000Y7915000D02*
G01*
X765000Y7915000D01*
X765000Y8215000D01*
X490000Y8390000D02*
G01*
X730000Y8390000D01*
X760000Y8420000D01*
D11*
X3185000Y8615000D02*
G01*
X3175000Y8615000D01*
X3186259Y8603740D01*
X3211757Y8603740D01*
X3213259Y8602238D01*
X3245017Y8602238D01*
X3290000Y8557255D01*
X3290000Y8510000D01*
X3310000Y8490000D01*
X3310000Y8386125D01*
X3356125Y8340000D01*
X3395000Y8340000D01*
X3495000Y8240000D01*
X3550000Y8240000D01*
X3432203Y8302797D02*
G01*
X3432297Y8302703D01*
X2965000Y9335000D02*
G01*
X3115000Y9185000D01*
X3175000Y9185000D01*
X3305000Y9185000D01*
X3360000Y9130000D01*
X3360000Y8635000D01*
X3542500Y8452500D01*
X3435000Y6925000D02*
G01*
X3438150Y6925000D01*
X3535000Y6828150D01*
X2955000Y7090000D02*
G01*
X3105000Y6940000D01*
X3165000Y6940000D01*
X3435000Y6940000D01*
X3520000Y7025000D01*
X3535000Y7025000D01*
X2955000Y7645000D02*
G01*
X3105000Y7495000D01*
X3165000Y7495000D01*
X3280000Y7495000D01*
X3395000Y7610000D01*
X3468150Y7683150D01*
X3520000Y7683150D01*
X2960000Y8205000D02*
G01*
X3110000Y8055000D01*
X3170000Y8055000D01*
X3190000Y8055000D02*
G01*
X3300000Y8055000D01*
X3475000Y7880000D01*
X3520000Y7880000D01*
X1360000Y7341125D02*
G01*
X1360000Y7851125D01*
X1360000Y8389502D01*
X1360000Y7851125D02*
G01*
X1406125Y7805000D01*
X1545000Y7805000D01*
X1629325Y7720674D01*
X1686825Y7720674D01*
X1465000Y8215000D02*
G01*
X1630000Y8050000D01*
X1675000Y8050000D01*
X1686259Y8061260D01*
X1686259Y8121260D01*
X1756825Y8191826D01*
X1756825Y8270674D01*
X1762500Y8265000D01*
X1928740Y8265000D01*
X1460000Y8720000D02*
G01*
X1570000Y8610000D01*
X1680000Y8610000D01*
X1680000Y8675000D01*
X1765000Y8760000D01*
X1765000Y8825000D01*
X1360000Y8871125D02*
G01*
X1406125Y8825000D01*
X1655000Y8825000D01*
X1640000Y9390000D02*
G01*
X1645000Y9395000D01*
X1933740Y9395000D01*
X1475000Y7910000D02*
G01*
X1710000Y7910000D01*
X1810000Y7910000D01*
X1825000Y7910000D01*
X1900000Y7985000D01*
X1953661Y7985000D01*
X2029472Y7424473D02*
G01*
X2030000Y7425000D01*
X2030000Y6770000D02*
G01*
X2031378Y6768622D01*
X2116772Y6768622D01*
X2170394Y6715000D01*
X2716774Y6715000D01*
X2789766Y6787992D01*
X2855748Y6787992D01*
X2950000Y6693740D01*
X2670000Y6940000D02*
G01*
X2935000Y6940000D01*
X3035000Y6840000D01*
X3165000Y6840000D01*
X1770000Y6935000D02*
G01*
X1895118Y7060118D01*
X2134882Y7060118D01*
X2165000Y7030000D01*
X2143427Y6941260D02*
G01*
X2201757Y6941260D01*
X2273379Y7012881D01*
X2273379Y7078379D01*
X2345000Y7150000D01*
X2435000Y7150000D01*
X2185000Y6845000D02*
G01*
X2565000Y6845000D01*
X2657992Y6937992D01*
X2030000Y7325000D02*
G01*
X2031378Y7323622D01*
X2116772Y7323622D01*
X2170394Y7270000D01*
X2716774Y7270000D01*
X2789766Y7342992D01*
X2855748Y7342992D01*
X2950000Y7248740D01*
X2670000Y7495000D02*
G01*
X2935000Y7495000D01*
X3035000Y7395000D01*
X3165000Y7395000D01*
X1770000Y7490000D02*
G01*
X1895118Y7615118D01*
X2134882Y7615118D01*
X2165000Y7585000D01*
X2185000Y7400000D02*
G01*
X2565000Y7400000D01*
X2657992Y7492992D01*
X2034472Y7984473D02*
G01*
X2035000Y7985000D01*
X2035000Y7885000D02*
G01*
X2036378Y7883622D01*
X2121772Y7883622D01*
X2175394Y7830000D01*
X2721774Y7830000D01*
X2794766Y7902992D01*
X2860748Y7902992D01*
X2955000Y7808740D01*
X2675000Y8055000D02*
G01*
X2940000Y8055000D01*
X3040000Y7955000D01*
X3170000Y7955000D01*
X1775000Y8050000D02*
G01*
X1900118Y8175118D01*
X2139882Y8175118D01*
X2170000Y8145000D01*
X2190000Y7960000D02*
G01*
X2570000Y7960000D01*
X2662992Y8052992D01*
X2965000Y8765000D02*
G01*
X3115000Y8615000D01*
X3175000Y8615000D01*
X2040000Y8445000D02*
G01*
X2041378Y8443622D01*
X2126772Y8443622D01*
X2180394Y8390000D01*
X2726774Y8390000D01*
X2799766Y8462992D01*
X2865748Y8462992D01*
X2960000Y8368740D01*
X2680000Y8615000D02*
G01*
X2945000Y8615000D01*
X3045000Y8515000D01*
X3175000Y8515000D01*
X1780000Y8610000D02*
G01*
X1905118Y8735118D01*
X2144882Y8735118D01*
X2175000Y8705000D01*
X2195000Y8520000D02*
G01*
X2575000Y8520000D01*
X2667992Y8612992D01*
X1455000Y8930000D02*
G01*
X1694503Y8930000D01*
X1694751Y8929751D01*
X1719751Y8929751D01*
X1904472Y9114473D01*
X2039472Y9114473D01*
X2040000Y9115000D01*
X2195000Y9090000D02*
G01*
X2575000Y9090000D01*
X2667992Y9182992D01*
X2040000Y9015000D02*
G01*
X2041378Y9013622D01*
X2126772Y9013622D01*
X2180394Y8960000D01*
X2726774Y8960000D01*
X2799766Y9032992D01*
X2865748Y9032992D01*
X2960000Y8938740D01*
X1780000Y9180000D02*
G01*
X1905118Y9305118D01*
X2144882Y9305118D01*
X2175000Y9275000D01*
X2680000Y9185000D02*
G01*
X2945000Y9185000D01*
X3045000Y9085000D01*
X3175000Y9085000D01*
D10*
X770000Y6930000D02*
G01*
X770000Y7195000D01*
X753173Y8429328D02*
G01*
X753173Y8684328D01*
D12*
G01*
X135000Y5319999D03*
D13*
G01*
X1165000Y9440000D03*
D14*
G01*
X2505000Y170000D03*
G01*
X1510000Y265000D03*
D15*
G01*
X305000Y515000D03*
D13*
G01*
X810000Y9440000D03*
D16*
G01*
X213069Y4185000D03*
G01*
X346930Y4185000D03*
G01*
X213069Y4725000D03*
G01*
X346930Y4725000D03*
G01*
X351930Y5175000D03*
G01*
X218069Y5175000D03*
G01*
X346930Y5720000D03*
G01*
X213069Y5720000D03*
G01*
X346930Y6170000D03*
G01*
X213069Y6170000D03*
G01*
X346930Y6465000D03*
G01*
X213069Y6465000D03*
G01*
X296930Y1635000D03*
G01*
X163069Y1635000D03*
G01*
X306930Y2085000D03*
G01*
X173069Y2085000D03*
G01*
X301930Y2630000D03*
G01*
X168069Y2630000D03*
G01*
X301930Y3115000D03*
G01*
X168069Y3115000D03*
G01*
X301930Y3405000D03*
G01*
X168069Y3405000D03*
G01*
X301930Y3665000D03*
G01*
X168069Y3665000D03*
G01*
X298069Y6920000D03*
G01*
X431930Y6920000D03*
G01*
X308069Y7360000D03*
G01*
X441930Y7360000D03*
G01*
X303069Y7910000D03*
G01*
X436930Y7910000D03*
G01*
X298069Y8390000D03*
G01*
X431930Y8390000D03*
G01*
X298069Y8950000D03*
G01*
X431930Y8950000D03*
D11*
G75*
G01*
X2057328Y6319882D02*
G03*
X2040527Y6310527I29618J-72958D01*
D17*
G01*
X2175000Y9275000D03*
G01*
X2824610Y9275000D03*
D18*
G01*
X435000Y9370000D03*
G01*
X535000Y9270000D03*
G01*
X535000Y9470000D03*
G01*
X335000Y9470000D03*
G01*
X335000Y9270000D03*
G01*
X1050000Y380000D03*
G01*
X1250000Y380000D03*
G01*
X1250000Y180000D03*
G01*
X1050000Y180000D03*
G01*
X1150000Y280000D03*
G01*
X202500Y934840D03*
G01*
X402500Y934840D03*
G01*
X402500Y734840D03*
G01*
X202500Y734840D03*
G01*
X302500Y834840D03*
D20*
G01*
X1410000Y675000D03*
G01*
X1110000Y675000D03*
G01*
X910000Y675000D03*
G01*
X710000Y675000D03*
G01*
X710000Y975000D03*
G01*
X910000Y975000D03*
G01*
X1110000Y975000D03*
D21*
G01*
X1410000Y975000D03*
D17*
G01*
X2165000Y840000D03*
G01*
X2814610Y840000D03*
G01*
X2190000Y685000D03*
G01*
X2839610Y685000D03*
D22*
G01*
X1950000Y965000D03*
D23*
G01*
X2371259Y965000D03*
D22*
G01*
X2445000Y965000D03*
D23*
G01*
X2866259Y965000D03*
D24*
G01*
X3180000Y740000D03*
D25*
G01*
X3180000Y640000D03*
G01*
X1790000Y785000D03*
D24*
G01*
X1690000Y785000D03*
D17*
G01*
X2815000Y530000D03*
G01*
X2165390Y530000D03*
D26*
G01*
X2055000Y585000D03*
D27*
G01*
X2055000Y685000D03*
G01*
X2055000Y785000D03*
D17*
G01*
X2955000Y505000D03*
G01*
X2955000Y926260D03*
D28*
G01*
X1776830Y1040670D03*
D29*
G01*
X1676830Y1040670D03*
D30*
G01*
X3510000Y605000D03*
G01*
X3510000Y801850D03*
G01*
X3540000Y4025000D03*
G01*
X3540000Y4221849D03*
G01*
X3540000Y4835000D03*
G01*
X3540000Y5031849D03*
G01*
X3515000Y5950000D03*
G01*
X3515000Y6146849D03*
G01*
X3485000Y1195000D03*
G01*
X3485000Y1391850D03*
G01*
X3485000Y2040000D03*
G01*
X3485000Y2236850D03*
G01*
X3535000Y7025000D03*
G01*
X3535000Y6828150D03*
G01*
X3520000Y7880000D03*
G01*
X3520000Y7683150D03*
G01*
X3540000Y8440000D03*
G01*
X3540000Y8243150D03*
D29*
G01*
X1651830Y4430670D03*
D28*
G01*
X1751830Y4430670D03*
D29*
G01*
X1661830Y4965670D03*
D28*
G01*
X1761830Y4965670D03*
D29*
G01*
X1666830Y5515670D03*
D28*
G01*
X1766830Y5515670D03*
G01*
X1756830Y6060670D03*
D29*
G01*
X1656830Y6060670D03*
D28*
G01*
X1771830Y6620670D03*
D29*
G01*
X1671830Y6620670D03*
D28*
G01*
X1706830Y1570670D03*
D29*
G01*
X1606830Y1570670D03*
D28*
G01*
X1701830Y2145670D03*
D29*
G01*
X1601830Y2145670D03*
D28*
G01*
X1716830Y2680670D03*
D29*
G01*
X1616830Y2680670D03*
D28*
G01*
X1681830Y3245670D03*
D29*
G01*
X1581830Y3245670D03*
G01*
X1656830Y8270670D03*
D28*
G01*
X1756830Y8270670D03*
G01*
X1686830Y3810670D03*
D29*
G01*
X1586830Y3810670D03*
G01*
X1676830Y7160670D03*
D28*
G01*
X1776830Y7160670D03*
D29*
G01*
X1686830Y7720670D03*
D28*
G01*
X1786830Y7720670D03*
G01*
X1765000Y8825000D03*
D29*
G01*
X1665000Y8825000D03*
D31*
G01*
X1640000Y9480000D03*
D28*
G01*
X1640000Y9380000D03*
D17*
G01*
X2950000Y6693740D03*
G01*
X2950000Y7115000D03*
D26*
G01*
X2030000Y6770000D03*
D27*
G01*
X2030000Y6870000D03*
G01*
X2030000Y6970000D03*
D17*
G01*
X2820000Y6715000D03*
G01*
X2170390Y6715000D03*
D25*
G01*
X3165000Y6840000D03*
D24*
G01*
X3165000Y6940000D03*
D25*
G01*
X1770000Y6935000D03*
D24*
G01*
X1670000Y6935000D03*
D22*
G01*
X2435000Y7150000D03*
D23*
G01*
X2856259Y7150000D03*
D22*
G01*
X1923740Y7150000D03*
D23*
G01*
X2345000Y7150000D03*
D17*
G01*
X2170390Y6865000D03*
G01*
X2820000Y6865000D03*
G01*
X2165000Y7030000D03*
G01*
X2814610Y7030000D03*
G01*
X2950000Y7248740D03*
G01*
X2950000Y7670000D03*
D26*
G01*
X2030000Y7325000D03*
D27*
G01*
X2030000Y7425000D03*
G01*
X2030000Y7525000D03*
D17*
G01*
X2820000Y7270000D03*
G01*
X2170390Y7270000D03*
D25*
G01*
X3165000Y7395000D03*
D24*
G01*
X3165000Y7495000D03*
D25*
G01*
X1770000Y7490000D03*
D24*
G01*
X1670000Y7490000D03*
D22*
G01*
X2435000Y7705000D03*
D23*
G01*
X2856259Y7705000D03*
D22*
G01*
X1923740Y7705000D03*
D23*
G01*
X2345000Y7705000D03*
D17*
G01*
X2170390Y7420000D03*
G01*
X2820000Y7420000D03*
G01*
X2165000Y7585000D03*
G01*
X2814610Y7585000D03*
G01*
X2955000Y7808740D03*
G01*
X2955000Y8230000D03*
D26*
G01*
X2035000Y7885000D03*
D27*
G01*
X2035000Y7985000D03*
G01*
X2035000Y8085000D03*
D17*
G01*
X2825000Y7830000D03*
G01*
X2175390Y7830000D03*
D25*
G01*
X3170000Y7955000D03*
D24*
G01*
X3170000Y8055000D03*
D25*
G01*
X1775000Y8050000D03*
D24*
G01*
X1675000Y8050000D03*
D22*
G01*
X2440000Y8265000D03*
D23*
G01*
X2861259Y8265000D03*
D22*
G01*
X1928740Y8265000D03*
D23*
G01*
X2350000Y8265000D03*
D17*
G01*
X2175390Y7980000D03*
G01*
X2825000Y7980000D03*
G01*
X2170000Y8145000D03*
G01*
X2819610Y8145000D03*
G01*
X2960000Y8368740D03*
G01*
X2960000Y8790000D03*
D26*
G01*
X2040000Y8445000D03*
D27*
G01*
X2040000Y8545000D03*
G01*
X2040000Y8645000D03*
D17*
G01*
X2830000Y8390000D03*
G01*
X2180390Y8390000D03*
D25*
G01*
X3175000Y8515000D03*
D24*
G01*
X3175000Y8615000D03*
G01*
X1680000Y8610000D03*
D25*
G01*
X1780000Y8610000D03*
D22*
G01*
X2445000Y8825000D03*
D23*
G01*
X2866259Y8825000D03*
D22*
G01*
X1933740Y8825000D03*
D23*
G01*
X2355000Y8825000D03*
D17*
G01*
X2180390Y8540000D03*
G01*
X2830000Y8540000D03*
G01*
X2175000Y8705000D03*
G01*
X2824610Y8705000D03*
G01*
X2180390Y9110000D03*
G01*
X2830000Y9110000D03*
D20*
G01*
X2355000Y9395000D03*
D32*
G01*
X1933740Y9395000D03*
D20*
G01*
X2445000Y9395000D03*
D33*
G01*
X2866259Y9395000D03*
D34*
G01*
X1780000Y9180000D03*
D33*
G01*
X1680000Y9180000D03*
D25*
G01*
X3175000Y9085000D03*
D24*
G01*
X3175000Y9185000D03*
D17*
G01*
X2830000Y8960000D03*
G01*
X2180390Y8960000D03*
D35*
G01*
X2040000Y9015000D03*
D36*
G01*
X2040000Y9115000D03*
G01*
X2040000Y9215000D03*
D17*
G01*
X2960000Y8938740D03*
D33*
G01*
X2960000Y9360000D03*
D17*
G01*
X2764610Y1435000D03*
G01*
X2115000Y1435000D03*
G01*
X2770000Y1270000D03*
G01*
X2120390Y1270000D03*
D23*
G01*
X2290000Y1565000D03*
D22*
G01*
X1868740Y1565000D03*
D23*
G01*
X2806259Y1555000D03*
D22*
G01*
X2385000Y1555000D03*
D24*
G01*
X1620000Y1340000D03*
D25*
G01*
X1720000Y1340000D03*
D24*
G01*
X3115000Y1345000D03*
D25*
G01*
X3115000Y1245000D03*
D17*
G01*
X2120390Y1120000D03*
G01*
X2770000Y1120000D03*
D27*
G01*
X1990000Y1385000D03*
G01*
X1990000Y1285000D03*
D26*
G01*
X1990000Y1185000D03*
D17*
G01*
X2900000Y1520000D03*
G01*
X2900000Y1098740D03*
G01*
X2764610Y2000000D03*
G01*
X2115000Y2000000D03*
G01*
X2770000Y1835000D03*
G01*
X2120390Y1835000D03*
D23*
G01*
X2295000Y2120000D03*
D22*
G01*
X1873740Y2120000D03*
D23*
G01*
X2806259Y2120000D03*
D22*
G01*
X2385000Y2120000D03*
D24*
G01*
X1620000Y1905000D03*
D25*
G01*
X1720000Y1905000D03*
D24*
G01*
X3115000Y1910000D03*
D25*
G01*
X3115000Y1810000D03*
D17*
G01*
X2120390Y1685000D03*
G01*
X2770000Y1685000D03*
D27*
G01*
X1980000Y1940000D03*
G01*
X1980000Y1840000D03*
D26*
G01*
X1980000Y1740000D03*
D17*
G01*
X2900000Y2085000D03*
G01*
X2900000Y1663740D03*
G01*
X2895000Y2645000D03*
G01*
X2895000Y2223740D03*
D27*
G01*
X1975000Y2500000D03*
G01*
X1975000Y2400000D03*
D26*
G01*
X1975000Y2300000D03*
D17*
G01*
X2115390Y2245000D03*
G01*
X2765000Y2245000D03*
D24*
G01*
X3110000Y2470000D03*
D25*
G01*
X3110000Y2370000D03*
D24*
G01*
X1615000Y2465000D03*
D25*
G01*
X1715000Y2465000D03*
D23*
G01*
X2801259Y2680000D03*
D22*
G01*
X2380000Y2680000D03*
D23*
G01*
X2290000Y2680000D03*
D22*
G01*
X1868740Y2680000D03*
D17*
G01*
X2765000Y2395000D03*
G01*
X2115390Y2395000D03*
G01*
X2759610Y2560000D03*
G01*
X2110000Y2560000D03*
G01*
X2759610Y3115000D03*
G01*
X2110000Y3115000D03*
G01*
X2765000Y2950000D03*
G01*
X2115390Y2950000D03*
D23*
G01*
X2290000Y3235000D03*
D22*
G01*
X1868740Y3235000D03*
D23*
G01*
X2801259Y3235000D03*
D22*
G01*
X2380000Y3235000D03*
D24*
G01*
X1615000Y3020000D03*
D25*
G01*
X1715000Y3020000D03*
D24*
G01*
X3110000Y3025000D03*
D25*
G01*
X3110000Y2925000D03*
D17*
G01*
X2115390Y2800000D03*
G01*
X2765000Y2800000D03*
D27*
G01*
X1975000Y3055000D03*
G01*
X1975000Y2955000D03*
D26*
G01*
X1975000Y2855000D03*
D17*
G01*
X2895000Y3200000D03*
G01*
X2895000Y2778740D03*
G01*
X2930000Y3895000D03*
G01*
X2930000Y4316260D03*
D26*
G01*
X2030000Y3975000D03*
D27*
G01*
X2030000Y4075000D03*
G01*
X2030000Y4175000D03*
D17*
G01*
X2790000Y3920000D03*
G01*
X2140390Y3920000D03*
D24*
G01*
X1665000Y4175000D03*
D25*
G01*
X1765000Y4175000D03*
G01*
X3155000Y4030000D03*
D24*
G01*
X3155000Y4130000D03*
D23*
G01*
X2841259Y4355000D03*
D22*
G01*
X2420000Y4355000D03*
D23*
G01*
X2346259Y4355000D03*
D22*
G01*
X1925000Y4355000D03*
D17*
G01*
X2814610Y4075000D03*
G01*
X2165000Y4075000D03*
G01*
X2789610Y4230000D03*
G01*
X2140000Y4230000D03*
G01*
X2930000Y4881260D03*
G01*
X2930000Y4460000D03*
D27*
G01*
X2030000Y4740000D03*
G01*
X2030000Y4640000D03*
D26*
G01*
X2030000Y4540000D03*
D17*
G01*
X2790000Y4485000D03*
G01*
X2140390Y4485000D03*
D24*
G01*
X1665000Y4740000D03*
D25*
G01*
X1765000Y4740000D03*
G01*
X3155000Y4595000D03*
D24*
G01*
X3155000Y4695000D03*
D23*
G01*
X2841259Y4920000D03*
D22*
G01*
X2420000Y4920000D03*
D23*
G01*
X2346259Y4920000D03*
D22*
G01*
X1925000Y4920000D03*
D17*
G01*
X2814610Y4640000D03*
G01*
X2165000Y4640000D03*
G01*
X2789610Y4795000D03*
G01*
X2140000Y4795000D03*
G01*
X2809610Y5350000D03*
G01*
X2160000Y5350000D03*
G01*
X2834610Y5195000D03*
G01*
X2185000Y5195000D03*
D23*
G01*
X2366259Y5475000D03*
D22*
G01*
X1945000Y5475000D03*
D23*
G01*
X2861259Y5475000D03*
D22*
G01*
X2440000Y5475000D03*
D25*
G01*
X3175000Y5150000D03*
D24*
G01*
X3175000Y5250000D03*
G01*
X1685000Y5295000D03*
D25*
G01*
X1785000Y5295000D03*
D17*
G01*
X2160390Y5040000D03*
G01*
X2810000Y5040000D03*
D27*
G01*
X2050000Y5295000D03*
G01*
X2050000Y5195000D03*
D26*
G01*
X2050000Y5095000D03*
D17*
G01*
X2950000Y5436260D03*
G01*
X2950000Y5015000D03*
G01*
X2779610Y5910000D03*
G01*
X2130000Y5910000D03*
G01*
X2804610Y5755000D03*
G01*
X2155000Y5755000D03*
D23*
G01*
X2336259Y6035000D03*
D22*
G01*
X1915000Y6035000D03*
D23*
G01*
X2831259Y6035000D03*
D22*
G01*
X2410000Y6035000D03*
D25*
G01*
X3145000Y5710000D03*
D24*
G01*
X3145000Y5810000D03*
G01*
X1655000Y5855000D03*
D25*
G01*
X1755000Y5855000D03*
D17*
G01*
X2130390Y5600000D03*
G01*
X2780000Y5600000D03*
D27*
G01*
X2020000Y5855000D03*
G01*
X2020000Y5755000D03*
D26*
G01*
X2020000Y5655000D03*
D17*
G01*
X2920000Y5996260D03*
G01*
X2920000Y5575000D03*
G01*
X2920000Y6551260D03*
G01*
X2920000Y6130000D03*
G01*
X2885000Y3765000D03*
G01*
X2885000Y3343740D03*
D20*
G01*
X1455000Y8930000D03*
G01*
X1155000Y8930000D03*
G01*
X955000Y8930000D03*
G01*
X755000Y8930000D03*
G01*
X755000Y9230000D03*
G01*
X955000Y9230000D03*
G01*
X1155000Y9230000D03*
D21*
G01*
X1455000Y9230000D03*
G01*
X1460000Y8720000D03*
D20*
G01*
X1460000Y8420000D03*
G01*
X1160000Y8420000D03*
G01*
X960000Y8420000D03*
G01*
X760000Y8420000D03*
G01*
X760000Y8720000D03*
G01*
X960000Y8720000D03*
G01*
X1160000Y8720000D03*
G01*
X1468170Y7404330D03*
G01*
X1168170Y7404330D03*
G01*
X968170Y7404330D03*
G01*
X768170Y7404330D03*
G01*
X768170Y7704330D03*
G01*
X968170Y7704330D03*
G01*
X1168170Y7704330D03*
D21*
G01*
X1468170Y7704330D03*
D20*
G01*
X1465000Y7915000D03*
G01*
X1165000Y7915000D03*
G01*
X965000Y7915000D03*
G01*
X765000Y7915000D03*
G01*
X765000Y8215000D03*
G01*
X965000Y8215000D03*
G01*
X1165000Y8215000D03*
D21*
G01*
X1465000Y8215000D03*
D20*
G01*
X1470000Y6895000D03*
G01*
X1170000Y6895000D03*
G01*
X970000Y6895000D03*
G01*
X770000Y6895000D03*
G01*
X770000Y7195000D03*
G01*
X970000Y7195000D03*
G01*
X1170000Y7195000D03*
D21*
G01*
X1470000Y7195000D03*
G01*
X1446830Y4480670D03*
D20*
G01*
X1146830Y4480670D03*
G01*
X946829Y4480670D03*
G01*
X746829Y4480670D03*
G01*
X746829Y4180670D03*
G01*
X946829Y4180670D03*
G01*
X1146830Y4180670D03*
G01*
X1446830Y4180670D03*
D21*
G01*
X1410000Y1650000D03*
D20*
G01*
X1110000Y1650000D03*
G01*
X910000Y1650000D03*
G01*
X710000Y1650000D03*
G01*
X710000Y1350000D03*
G01*
X910000Y1350000D03*
G01*
X1110000Y1350000D03*
G01*
X1410000Y1350000D03*
D21*
G01*
X1446830Y5475670D03*
D20*
G01*
X1146830Y5475670D03*
G01*
X946829Y5475670D03*
G01*
X746829Y5475670D03*
G01*
X746829Y5175670D03*
G01*
X946829Y5175670D03*
G01*
X1146830Y5175670D03*
G01*
X1446830Y5175670D03*
D21*
G01*
X1410000Y2660000D03*
D20*
G01*
X1110000Y2660000D03*
G01*
X910000Y2660000D03*
G01*
X710000Y2660000D03*
G01*
X710000Y2360000D03*
G01*
X910000Y2360000D03*
G01*
X1110000Y2360000D03*
G01*
X1410000Y2360000D03*
D21*
G01*
X1408170Y2154330D03*
D20*
G01*
X1108170Y2154330D03*
G01*
X908170Y2154330D03*
G01*
X708170Y2154330D03*
G01*
X708170Y1854330D03*
G01*
X908170Y1854330D03*
G01*
X1108170Y1854330D03*
G01*
X1408170Y1854330D03*
G01*
X1446830Y4680670D03*
G01*
X1146830Y4680670D03*
G01*
X946829Y4680670D03*
G01*
X746829Y4680670D03*
G01*
X746829Y4980670D03*
G01*
X946829Y4980670D03*
G01*
X1146830Y4980670D03*
D21*
G01*
X1446830Y4980670D03*
D20*
G01*
X1446830Y5680670D03*
G01*
X1146830Y5680670D03*
G01*
X946829Y5680670D03*
G01*
X746829Y5680670D03*
G01*
X746829Y5980670D03*
G01*
X946829Y5980670D03*
G01*
X1146830Y5980670D03*
D21*
G01*
X1446830Y5980670D03*
D20*
G01*
X1108170Y3174330D03*
G01*
X908170Y3174330D03*
G01*
X708170Y3174330D03*
G01*
X708170Y2874330D03*
G01*
X908170Y2874330D03*
G01*
X1108170Y2874330D03*
G01*
X1408170Y2874330D03*
D21*
G01*
X1408170Y3174330D03*
G01*
X1446830Y6475670D03*
D20*
G01*
X1146830Y6475670D03*
G01*
X946829Y6475670D03*
G01*
X746829Y6475670D03*
G01*
X746829Y6175670D03*
G01*
X946829Y6175670D03*
G01*
X1146830Y6175670D03*
G01*
X1446830Y6175670D03*
D21*
G01*
X1410000Y3685000D03*
D20*
G01*
X1110000Y3685000D03*
G01*
X910000Y3685000D03*
G01*
X710000Y3685000D03*
G01*
X710000Y3385000D03*
G01*
X910000Y3385000D03*
G01*
X1110000Y3385000D03*
G01*
X1410000Y3385000D03*
D27*
G01*
X2020000Y6410000D03*
G01*
X2020000Y6310000D03*
D26*
G01*
X2020000Y6210000D03*
D17*
G01*
X2130390Y6155000D03*
G01*
X2780000Y6155000D03*
D30*
G01*
X3590000Y9130000D03*
G01*
X3590000Y8933150D03*
G01*
X3475000Y3386850D03*
G01*
X3475000Y3190000D03*
D27*
G01*
X1965000Y3620000D03*
G01*
X1965000Y3520000D03*
D26*
G01*
X1965000Y3420000D03*
D17*
G01*
X2105390Y3365000D03*
G01*
X2755000Y3365000D03*
D24*
G01*
X1655000Y6410000D03*
D25*
G01*
X1755000Y6410000D03*
G01*
X3145000Y6265000D03*
D24*
G01*
X3145000Y6365000D03*
G01*
X3100000Y3590000D03*
D25*
G01*
X3100000Y3490000D03*
D24*
G01*
X1605000Y3585000D03*
D25*
G01*
X1705000Y3585000D03*
D23*
G01*
X2831259Y6590000D03*
D22*
G01*
X2410000Y6590000D03*
D23*
G01*
X2336259Y6590000D03*
D22*
G01*
X1915000Y6590000D03*
D23*
G01*
X2791259Y3800000D03*
D22*
G01*
X2370000Y3800000D03*
D23*
G01*
X2280000Y3800000D03*
D22*
G01*
X1858740Y3800000D03*
D17*
G01*
X2804610Y6310000D03*
G01*
X2155000Y6310000D03*
G01*
X2755000Y3515000D03*
G01*
X2105390Y3515000D03*
G01*
X2779610Y6465000D03*
G01*
X2130000Y6465000D03*
G01*
X2749610Y3680000D03*
G01*
X2100000Y3680000D03*
D37*
G01*
X120000Y9440000D03*
G01*
X3694629Y115000D03*
G01*
X120000Y120000D03*
G01*
X3695000Y9450000D03*
D38*
G01*
X2505000Y170000D03*
G01*
X1160000Y9445000D03*
M02*
