G04 Layer: TopPasteMaskLayer*
G04 EasyEDA v6.5.39, 2023-12-18 16:16:31*
G04 0a3b229aafce46c6802f92c5d4cde22f,84f6a191e6f14c5fb88c895b5cbe8e50,10*
G04 Gerber Generator version 0.2*
G04 Scale: 100 percent, Rotated: No, Reflected: No *
G04 Dimensions in inches *
G04 leading zeros omitted , absolute positions ,3 integer and 6 decimal *
%FSLAX36Y36*%
%MOIN*%

%AMMACRO1*4,1,21,-0.0492,1.2205,0.0492,1.2205,0.068,1.2167,0.084,1.2061,0.0947,1.1901,0.0984,1.1713,0.0984,-1.1713,0.0947,-1.1901,0.084,-1.2061,0.068,-1.2167,0.0492,-1.2205,-0.0492,-1.2205,-0.068,-1.2167,-0.084,-1.2061,-0.0947,-1.1901,-0.0984,-1.1713,-0.0984,1.1713,-0.0947,1.1901,-0.084,1.2061,-0.068,1.2167,-0.0492,1.2205,-0.0492,1.2205,0*%
%AMMACRO2*4,1,21,-0.0492,0.0984,0.0492,0.0984,0.068,0.0947,0.084,0.084,0.0947,0.068,0.0984,0.0492,0.0984,-0.0492,0.0947,-0.068,0.084,-0.084,0.068,-0.0947,0.0492,-0.0984,-0.0492,-0.0984,-0.068,-0.0947,-0.084,-0.084,-0.0947,-0.068,-0.0984,-0.0492,-0.0984,0.0492,-0.0947,0.068,-0.084,0.084,-0.068,0.0947,-0.0492,0.0984,-0.0492,0.0984,0*%
%AMMACRO3*4,1,21,0.0492,-0.0984,-0.0492,-0.0984,-0.068,-0.0947,-0.084,-0.084,-0.0947,-0.068,-0.0984,-0.0492,-0.0984,0.0492,-0.0947,0.068,-0.084,0.084,-0.068,0.0947,-0.0492,0.0984,0.0492,0.0984,0.068,0.0947,0.084,0.084,0.0947,0.068,0.0984,0.0492,0.0984,-0.0492,0.0947,-0.068,0.084,-0.084,0.068,-0.0947,0.0492,-0.0984,0.0492,-0.0984,0*%
%ADD10MACRO1*%
%ADD11MACRO2*%
%ADD12MACRO3*%
%ADD13R,0.0906X0.1378*%

%LPD*%
D10*
G01*
X135004Y5320000D03*
D11*
G01*
X1165005Y9439995D03*
G01*
X2505005Y169994D03*
G01*
X1510005Y264995D03*
D12*
G01*
X305004Y514995D03*
D11*
G01*
X810004Y9439995D03*
D13*
G01*
X213069Y4185000D03*
G01*
X346930Y4185000D03*
G01*
X213069Y4725000D03*
G01*
X346930Y4725000D03*
G01*
X351930Y5175000D03*
G01*
X218069Y5175000D03*
G01*
X346930Y5720000D03*
G01*
X213069Y5720000D03*
G01*
X346930Y6170000D03*
G01*
X213069Y6170000D03*
G01*
X346930Y6465000D03*
G01*
X213069Y6465000D03*
G01*
X296930Y1635000D03*
G01*
X163069Y1635000D03*
G01*
X306930Y2085000D03*
G01*
X173069Y2085000D03*
G01*
X301930Y2630000D03*
G01*
X168069Y2630000D03*
G01*
X301930Y3115000D03*
G01*
X168069Y3115000D03*
G01*
X301930Y3405000D03*
G01*
X168069Y3405000D03*
G01*
X301930Y3665000D03*
G01*
X168069Y3665000D03*
G01*
X298069Y6920000D03*
G01*
X431930Y6920000D03*
G01*
X308069Y7360000D03*
G01*
X441930Y7360000D03*
G01*
X303069Y7910000D03*
G01*
X436930Y7910000D03*
G01*
X298069Y8390000D03*
G01*
X431930Y8390000D03*
G01*
X298069Y8950000D03*
G01*
X431930Y8950000D03*
M02*
